<?xml version="1.0" encoding="utf-8"?>
<!-- Generator: Adobe Illustrator 24.2.3, SVG Export Plug-In . SVG Version: 6.00 Build 0)  -->
<svg version="1.1" id="Layer_1" xmlns="http://www.w3.org/2000/svg" xmlns:xlink="http://www.w3.org/1999/xlink" x="0px" y="0px"
	 viewBox="0 0 1000 400" style="enable-background:new 0 0 1000 400;" xml:space="preserve">
<style type="text/css">
	.st0{fill:#00313D;}
</style>
<g>
	<path class="st0" d="M530.9,221.7c-1.8,0-3.6-0.4-5.1-1.3c-3.2-2.1-5.9-4.9-7.9-8.2c0,0-0.9-1.4-1.2-1.8c1.4-3.4,3.3-6.7,5.5-9.6
		c1.5-2.2,4-3.6,6.8-3.8h0.7v-7.4l-0.8,0.1c-7,0.7-12.4,5.3-16.8,14.2c-1.8-2.3-3.9-4.4-6.3-6.1c3.6-2.5,7.3-6.9,7.3-12
		c0-8.5-6.3-14.1-15.7-14.1c-7.9,0-16.3,5.5-16.3,14.4c0,4.3,2,8.3,5.4,10.8c-2.4,1.3-4.5,3.1-6.1,5.2c-1.9,2.7-3,5.9-3,9.2
		c0,10.2,7.4,17,18.3,17c7.1-0.1,13.7-4,17.3-10.2c2.5,3.8,6.1,6.9,10.3,8.7c2.5,1,5.1,1.5,7.8,1.5h0.7v-6.8H530.9z M491.6,190.9
		c-1.3-1.5-2-3.4-2-5.4c0-3.5,2.1-7.6,8-7.6c4.2,0.1,7.6,3.5,7.5,7.7c0,0.1,0,0.1,0,0.2c0,4.3-3,7.2-5.7,8.7
		C496.3,194.3,493.6,193,491.6,190.9L491.6,190.9z M502.2,204.5L502.2,204.5c2.4,2.1,4.5,4.5,6.2,7.2c-3,6.6-7.5,10-12.7,10
		c-5.5,0-9.7-4.7-9.7-10.7c-0.1-4.7,2.9-8.9,7.4-10.3C496.6,201.1,499.7,202.4,502.2,204.5L502.2,204.5z"/>
	<path class="st0" d="M233,227h-43.7c0-0.1,0.2-0.7,0.2-0.8c0.5-2.1,0.8-4.3,0.7-6.5V181c0.1-2.5-0.2-5-1.1-7.4h11.5
		c-0.9,2.4-1.3,5-1.2,7.6v38.4h26.7c2.1,0.1,4.1-0.2,6.1-0.9l0.8-0.3L233,227z"/>
	<path class="st0" d="M251.7,173.7h11.5c-0.9,2.4-1.3,5-1.2,7.6v38.4h26.8c2,0.1,4.1-0.2,6-0.9l0.8-0.3v8.7h-43.7
		c0-0.1,0.2-0.7,0.2-0.8c0.6-2.1,0.8-4.3,0.7-6.5V181C253,178.5,252.6,176,251.7,173.7z"/>
	<path class="st0" d="M133.3,173.7c0,0-20,39.2-23.1,45.3c-1.4,2.9-3.1,5.6-5.2,8.1h11.8c0.2-2.3,0.8-4.5,1.9-6.6l4.1-8.3h28.9
		c0,0,3.4,6.9,4.2,8.7c1,1.9,1.7,4,2,6.1h12.9c-2.1-2.2-3.9-4.7-5.2-7.4l-23.3-45.8l0,0L133.3,173.7z M137.3,182.3l11.3,23H126
		L137.3,182.3z"/>
	<path class="st0" d="M356.6,218.4v8.7h-43.7l0.2-0.8c0.6-2.1,0.8-4.3,0.7-6.5V181c0.1-2.5-0.2-5-1.1-7.4h42.1v8.6l-0.8-0.3
		c-1.9-0.7-3.9-1-5.9-1H323v14.4c6,0,17.9,0,17.9,0c2,0.1,4.1-0.2,6-0.9l0.8-0.3v9.2c-0.3-0.1-0.5-0.2-0.8-0.3c-1.9-0.7-3.9-1-6-1
		H323v17.5h26.9c2,0.1,4.1-0.2,6-0.9L356.6,218.4z"/>
	<path class="st0" d="M431.2,227h-7.8l-36.6-40.4v33c-0.1,2.5,0.3,5,1.1,7.4h-10.7c0.9-2.4,1.3-4.9,1.1-7.4V181
		c0.1-2.5-0.3-5-1.1-7.4h9.5l36,39.8V181c0.1-2.5-0.2-5-1.1-7.4h10.8c-0.9,2.4-1.3,4.9-1.1,7.4V227z"/>
	<path class="st0" d="M636.3,173.7h13.8c-0.1,1.6,1.6,5.9,2.6,7.9c2.1,4.6,16.9,34.8,16.9,34.8s14.5-32,15.8-34.9
		c1.3-2.4,2-5.1,2.3-7.8h12.2c-1.9,2.7-3.6,5.6-5,8.6c-1.4,2.9-21.3,44.7-21.3,44.7l0,0h-9.1c0,0-20-39.6-22.5-44.7
		C640.6,179.2,638.7,176.3,636.3,173.7z"/>
	<path class="st0" d="M567.8,200.3c0,14.2,9.3,28.1,29.7,28.1s29.7-13.9,29.7-28.1s-9.3-28-29.7-28
		C577.1,172.3,567.8,186.1,567.8,200.3z M577.9,200.3c0-9.7,5.2-20.7,19.6-20.7s19.6,10.3,19.6,20.7c0,10.1-5.6,20.7-19.6,20.7
		C583.5,221,577.9,210.8,577.9,200.3z"/>
	<path class="st0" d="M779.4,227.1c0.9-2.4,1.3-4.9,1.1-7.4v-38.6c0.1-2.5-0.2-5-1.1-7.4h30c2.9-0.1,5.7,0.3,8.5,1.2
		c5.8,1.6,9.7,7,9.5,13.1c0,5.7-3,11.7-12.9,14.3c1.1,1.8,9.8,16,9.8,16c0.2,0.2,0.4,0.6,0.5,0.8c1.8,3,4.1,5.7,6.7,8h-13
		c-1.2-3.5-2.8-6.8-4.9-9.8l-5.8-9.4c-0.1-0.2-0.4-0.6-0.5-0.8c-2.5-3.9-3.4-4.3-9.6-4.3h-7.9v16.9c-0.1,2.5,0.3,5,1.1,7.4
		L779.4,227.1L779.4,227.1z M789.8,181v15h19.8c5.8,0,8.3-4.1,8.3-7.6c0-4.6-3.6-7.4-9.5-7.4H789.8z"/>
	<path class="st0" d="M759.3,218.4v8.7h-43.7c0-0.1,0.2-0.7,0.2-0.8c0.6-2.1,0.8-4.3,0.7-6.5V181c0.1-2.5-0.3-5-1.1-7.4h42v8.6
		l-0.8-0.3c-1.9-0.7-3.9-1-6-1h-25v14.4c6.1,0,17.9,0,17.9,0c2,0.1,4.1-0.2,6-0.9l0.8-0.3v9.2c-0.3-0.1-0.5-0.2-0.8-0.3
		c-1.9-0.7-3.9-1-6-1h-17.9v17.5h26.9c2,0.1,4.1-0.2,6-0.9L759.3,218.4z"/>
	<path class="st0" d="M895,173.7c-3.6,3.6-6.9,7.6-9.9,11.7l-13.4,18.3v16c-0.1,2.5,0.3,5,1.1,7.4h-11.5c0.9-2.4,1.3-4.9,1.1-7.4
		v-16.1c-0.4-0.6-14-18.6-14-18.6c-2.7-3.7-5.5-7.2-8.7-10.5c-0.1-0.1-0.8-0.8-0.9-0.9h13.1c0.9,2.7,2.3,5.1,4,7.3l11.2,15l0,0
		l10.9-14.5c0.1-0.1,0.1-0.2,0.2-0.3c1.7-2.3,3.1-4.8,4.1-7.5L895,173.7L895,173.7z"/>
</g>
</svg>
