<?xml version="1.0" encoding="utf-8"?>
<!-- Generator: Adobe Illustrator 24.2.3, SVG Export Plug-In . SVG Version: 6.00 Build 0)  -->
<svg version="1.1" id="Layer_1" xmlns="http://www.w3.org/2000/svg" xmlns:xlink="http://www.w3.org/1999/xlink" x="0px" y="0px"
	 viewBox="0 0 1000 400" style="enable-background:new 0 0 1000 400;" xml:space="preserve">
<style type="text/css">
	.st0{fill:#00313D;}
	.st1{fill-rule:evenodd;clip-rule:evenodd;fill:#00313D;}
</style>
<g>
	<path class="st0" d="M539.6,256.6h11.6c2.2,0.2,4.4-0.6,6-2.1c1.5-1.6,2.2-3.8,2.1-6c0.2-2.3-0.7-4.5-2.3-6.1
		c-2.1-1.6-4.8-2.4-7.4-2.1h-10.2L539.6,256.6z M527.4,237.7c0-5,2.4-7.2,7.3-7.2h17.7c5.9,0,10.7,1.3,14.2,4.5
		c3.6,3.6,5.4,8.5,5.1,13.5c0,9.8-6,18.1-18.1,18.1h-14.1v13.1c0.2,3.4-2.4,6.3-5.7,6.5c-3.4,0.2-6.3-2.4-6.5-5.7c0-0.2,0-0.5,0-0.7
		L527.4,237.7z"/>
	<path class="st0" d="M609.4,256.6H621c2.2,0.2,4.4-0.6,6-2.1c1.5-1.6,2.3-3.8,2.3-6c0.2-2.3-0.7-4.5-2.3-6.1
		c-2.1-1.6-4.8-2.4-7.4-2.1h-10.2L609.4,256.6z M597.2,237.7c0-5,2.4-7.2,7.3-7.2h17.7c5.9,0,10.7,1.3,14.2,4.5
		c3.6,3.6,5.4,8.5,5.1,13.5c0,9.8-6,18.1-18,18.1h-14.2v13.1c0.2,3.4-2.4,6.3-5.7,6.5c-3.4,0.2-6.3-2.4-6.5-5.7c0-0.2,0-0.5,0-0.7
		V237.7z"/>
	<path class="st0" d="M727.5,264.4c6.1-2.9,9-9,9-16c0.3-5-1.6-9.8-5.1-13.3c-3.4-3.2-8.3-4.5-14.1-4.5h-17.7
		c-4.9,0-7.3,2.3-7.3,7.2v41.8c-0.2,3.4,2.4,6.3,5.7,6.5c3.4,0.2,6.3-2.4,6.5-5.7c0-0.2,0-0.5,0-0.7v-13.4h11.3l9,16
		c1,2.3,3.3,3.8,5.8,3.6c2.9,0.1,5.4-2.1,5.6-5.1c0-0.2,0-0.4,0-0.6c-0.1-1.2-0.4-2.3-1.1-3.2L727.5,264.4 M704.4,240.4h10.3
		c2.6-0.3,5.3,0.5,7.4,2.1c1.6,1.5,2.4,3.7,2.3,5.9c0.1,2.2-0.7,4.4-2.2,6c-1.8,1.6-4.1,2.4-6.5,2.3h-11.3L704.4,240.4z"/>
	<path class="st1" d="M395.7,236.3c-4.2-3.9-9.2-5.7-17.1-5.7h-15.2c-4.4,0-7,1.7-7,7.2v40.3c0,5.5,2.6,7.2,7,7.2h16.3
		c14.4,0,23.6-9,23.6-26.9C403.3,248.5,400.7,241,395.7,236.3 M387.1,271.7c-2.4,2.3-5.7,3.5-9,3.3h-9.3v-34.2h7.8
		c4.5,0,7.6,0.6,10,3.2c2.5,2.6,4.4,7.6,4.4,14.4C391,264.2,389.6,268.9,387.1,271.7"/>
	<path class="st0" d="M496.7,275.7c-0.6-1.7-11.1-31.7-12.8-36.6c-0.6-2.3-1.8-4.3-3.3-6.1c-1.7-1.7-4.1-2.6-6.5-2.5
		c-2.4-0.1-4.7,0.8-6.5,2.4c-1.5,1.6-2.6,3.5-3.3,5.5c-1.5,4.3-13.1,35.8-13.5,37.1c-0.6,1.5-1,3.1-1.2,4.7c0.2,3.1,3,5.5,6.1,5.3
		c2.2-0.2,4.2-1.6,4.9-3.7c0.5-1.3,1.6-4.7,3.1-9h20c1,3,2,5.9,3,9c0.7,2.5,3,4.1,5.5,3.9c3,0.1,5.6-2.3,5.7-5.3
		c-0.2-1.6-0.6-3.2-1.2-4.7 M467,263.4l6.8-19.8c1.7,5,4.1,12,6.8,19.8H467z"/>
	<path class="st0" d="M589.2,279.7c0.2,3.4-2.4,6.3-5.7,6.5s-6.3-2.4-6.5-5.7c0-0.2,0-0.5,0-0.7v-42.9c-0.2-3.4,2.4-6.3,5.7-6.5
		c3.4-0.2,6.3,2.4,6.5,5.7c0,0.2,0,0.5,0,0.7V279.7z"/>
	<path class="st0" d="M416,285.3c-4.4,0-7.1-1.7-7.1-7.2v-41.3c-0.2-3.4,2.4-6.3,5.7-6.5c3.4-0.2,6.3,2.4,6.5,5.7c0,0.2,0,0.5,0,0.7
		V275h18.8c1.8-0.2,3.6,0.4,5,1.5c0.9,1,1.3,2.3,1.2,3.6c0.1,1.3-0.4,2.6-1.2,3.6c-1.4,1.2-3.2,1.8-5,1.6H416z"/>
	<path class="st0" d="M653.7,285.3c-4.4,0-7-1.7-7-7.2v-40.3c0-5.5,2.8-7.2,7.2-7.2h25.7c1.8-0.2,3.6,0.4,5,1.5
		c0.9,1,1.3,2.3,1.2,3.6c0.1,1.3-0.4,2.6-1.2,3.6c-1.4,1.2-3.2,1.8-5,1.6h-20.7V253h17.9c1.8-0.2,3.5,0.3,4.9,1.4
		c1.7,2.1,1.7,5,0,7.1c-1.4,1.1-3.2,1.6-5,1.4h-17.9v12.1h21.3c1.8-0.2,3.6,0.3,4.9,1.5c0.9,1,1.3,2.3,1.2,3.6
		c0.1,1.3-0.4,2.6-1.2,3.6c-1.4,1.2-3.2,1.8-5,1.6H653.7z"/>
	<path class="st0" d="M307.5,337.9c-8,0.3-16-1.5-23-5.4c-6.9-3.9-12.5-9.7-16.3-16.8c-3.7-7-4.7-14.5-4.7-24.2V108.4
		c0-9.7,1.1-17.2,4.7-24.2c3.7-7,9.4-12.8,16.3-16.8c7-3.9,15-5.7,23-5.4h188.2c8-0.3,16,1.5,23,5.4c6.9,3.9,12.5,9.7,16.2,16.8
		c3.7,7,4.8,14.5,4.8,24.2v92.4c0.3,3-1.9,5.7-4.9,6.1c-0.4,0-0.7,0-1.1,0c-3.7,0-5.8-2.1-6.3-6.2c-3.7-28.2-13.5-50.7-31.2-68.6
		c-19.9-20.1-48.1-32.5-81.5-32.5c-67.4,0-113.4,50.3-113.4,113.4c0,31.8,11.7,60.3,31.9,80.8c17.2,17.5,40.1,28.8,68.4,31.8
		c5.6,0.6,7.4,2.8,7.4,6.4c0.1,1.6-0.5,3.1-1.6,4.2c-1.5,1.3-3.5,1.9-5.5,1.7L307.5,337.9z"/>
</g>
</svg>
