<?xml version="1.0" encoding="utf-8"?>
<!-- Generator: Adobe Illustrator 24.2.3, SVG Export Plug-In . SVG Version: 6.00 Build 0)  -->
<svg version="1.1" id="Layer_1" xmlns="http://www.w3.org/2000/svg" xmlns:xlink="http://www.w3.org/1999/xlink" x="0px" y="0px"
	 viewBox="0 0 1000 400" style="enable-background:new 0 0 1000 400;" xml:space="preserve">
<style type="text/css">
	.st0{fill:#00313C;}
</style>
<g>
	<path class="st0" d="M780.4,235.1l10,4.6v2.3h-34.3v-2.3l10-4.6v-71l-10-3.5v-2.3l24.8-5v81.8H780.4z M834.2,188.5
		c-2.3-0.4-4.6-0.8-6.5-0.8c-12.2,0-19.8,8.4-19.8,24.1c0,12.6,6.1,22.2,18.3,22.2c2.6,0,5-0.4,8-1.1V188.5z M849.1,232.9l9.5,3.1
		v2.3l-14.5,3.9c-1.1,0.4-2.3,0.8-3.5,0.8c-4.2,0-5.7-3.1-6.1-5.7l-9.1,3.9c-5,1.9-7.6,2.6-11.8,2.6c-11.5,0-21.3-12.6-21.3-27.9
		c0-19.5,14.1-32.9,33.2-32.9c3.5,0,6.1,0.4,8.7,1.1v-19.5l-10-3.5v-2.3l24.4-5L849.1,232.9z M893.4,208l-8-4.2
		c-5.4-2.6-8.7-4.6-8.7-8.8c0-4.6,3-7.2,10.3-7.2c2.6,0,6.1,0.8,8,1.1l4.6,9.2h5v-12.6c-5.4-1.9-12.6-3.1-18.7-3.1
		c-14.5,0-22.1,6.9-22.1,16.8c0,6.9,3.5,11.5,13,16.4l8.4,4.6c5.4,2.6,7.6,5,7.6,9.6c0,5.4-3.5,8-11.1,8c-3,0-7.2-0.8-8.7-1.5
		l-4.6-9.6h-4.6v13c6.1,1.9,13.3,3.9,19.8,3.9c15.6,0,23.3-7.6,23.3-17.9C906.3,217.6,902.5,213,893.4,208z M738.4,204.2
		c-0.4-12.6-4.2-16.4-10.3-16.4c-6.9,0-10.7,5.7-11.5,18.7L738.4,204.2z M729.3,182.1c15.6,0,23.7,10,23.7,27.9v0.8h-36.7
		c0,16.1,8.4,24.1,20.6,24.1c3.9,0,7.2-0.8,13-3.9l1.9,3.5c-6.5,5-14.5,8.4-22.6,8.4c-17.2,0-28.6-11.1-28.6-29.4
		C701,196.1,712.5,182.1,729.3,182.1z M334.4,161l9.5,4.6v69.9l-10,4.6v2.3h37.4v-2.3l-12.6-4.6v-32.9h21.7l3.9,8.4h2.6v-22.9h-2.5
		l-3.9,8.8h-21.7V164H384l5.7,12.6h3.5v-18.3h-58.7L334.4,161L334.4,161z M419.5,188.9v-6.9l-24.4,5v2.3l10,3.5v42.8l-10,4.6v2.3
		h36.7v-2.3l-11.8-4.6v-42.8c2.6-0.8,7.6-1.9,11.5-1.9c1.9,0,4.2,0,5,0l3.5,7.6h4.6v-14.9c-3-1.1-5-1.5-7.2-1.5
		C432.1,182.1,427.5,183.9,419.5,188.9z M484,204.2c0-12.6-4.2-16.4-10.3-16.4c-6.9,0-10.7,5.7-11.5,18.7L484,204.2z M475.2,182.1
		c15.6,0,24.1,10,24.1,27.9v1.1h-36.7c0,16.1,8.4,24.1,20.6,24.1c3.9,0,7.2-0.8,13-3.9l1.9,3.5c-6.5,5-14.5,8.4-22.1,8.4
		c-17.2,0-28.6-11.1-28.6-29.4C447,196.1,458.5,182.1,475.2,182.1z M616,200.4c0-12.2-7.2-18.3-16.4-18.3c-3,0-5.4,0.4-11.5,2.6
		c-3.5,1.1-6.1,2.3-9.5,3.5v-34.8l-24.4,5v2.3l10,3.1v71l-10,4.6v2.3h32v-2.3l-7.6-4.6V192c3.5-0.4,6.9-0.8,10-0.8
		c10.3,0,13,5,13,14.6v29.4l-8,4.6v2.3h30.9v-2.3l-8.4-4.6L616,200.4L616,200.4z M538.2,208l-8-4.2c-5-2.6-8.7-5-8.7-9.2
		c0-4.6,3.5-6.9,10.3-6.9c2.6,0,6.1,0.4,8,0.8l4.6,9.2h5v-12.6c-5.4-1.9-12.6-3.1-18.7-3.1c-14.5,0-22.1,6.9-22.1,16.8
		c0,6.9,3.5,11.1,13,16.4l8.7,4.6c5,2.6,7.2,5,7.2,9.6c0,5.4-3.5,8-10.7,8c-3,0-7.2-0.8-9.1-1.5l-4.6-9.2h-4.6v13
		c6.1,1.9,13.3,3.5,19.8,3.5c15.6,0,23.3-7.2,23.3-17.9C551.1,217.6,546.9,213,538.2,208z M688.9,182.8l-8.7,1.5h-27.9v-5
		c0-9.2,0.8-19.5,14.5-19.5c2.3,0,4.2,0,6.5,0.8l3.5,11.8h3.5c5.4,0,8-3.5,8-8c0-10-12.6-10.7-21.3-10.7c-16.8,0-29,9.6-29,28.3v2.6
		h-10v2.6l10,4.2v44l-10,4.6v2.3h32v-2.3l-8-4.6v-45.1H674v44.7l-7.6,4.6v1.9h32v-2.3l-10-4.6L688.9,182.8z"/>
	<path class="st0" d="M185.3,206.1l-11.5-28.7c1.9-0.8,2.6-2.3,2.6-3.5c0-3.1-2.3-4.6-2.3-4.6s1.1,1.1,1.1,2.6c0,1.1-0.8,2.6-3,3.5
		c-5,1.1-5.4,5.7-5.4,5.7s0.8-2.3,4.2-3.1l11.8,28.7C182.6,206.5,184.2,206.1,185.3,206.1z M157.4,141.9l-1.9-4.2l7.2,6.9
		L157.4,141.9z M159.7,144.2l5.4,1.9h0.4l-11.1-11.8v17.6l3-6.9l10.3,25.9c1.1-1.1,1.9-1.9,2.3-2.6L159.7,144.2z M196.3,149.5
		c0,5.4-3.5,11.1-5.4,11.8c0,0-0.4,0-1.5,0c-0.8,0-1.5,0-1.5,0c-1.9-0.8-5.4-6.5-5.4-11.8c0-4.2,3-7.6,6.5-7.6
		C192.9,141.9,196.3,145.4,196.3,149.5z M189.4,138.4c-5.7,0-10.7,5-10.7,11.5c0,4.2,1.9,7.2,3,9.2c1.5,2.3,0,3.1-1.1,3.1
		c-1.1-0.4-3.9-1.1-5.7-9.6c-0.4-1.1-0.4-2.3-0.4-3.5c0-9.6,6.5-16.4,15.2-16.4c9.5,0,15.2,8,15.2,16.4c0,1.1,0,2.6-0.4,3.9
		c-1.9,8.4-5,9.2-6.1,9.6c-0.4,0-0.4,0-0.8,0c-1.9-0.4-1.5-1.9-0.4-3.5c1.1-1.5,3-5,3-9.2C200.1,143.4,195.1,138.4,189.4,138.4z
		 M219.2,284.9c-8.7-21.1-11.5-52.7-11.5-74.1c0-2.6,0-6.9,0-8c6.1-6.1,6.9-10.3,5.4-17.9c-1.5-6.9-4.2-15.3-10-17.2
		c-3.5-1.1-5-1.5-5-1.5c1.1,0,2.3-0.4,2.3-0.4c3.9-1.5,6.9-6.5,8.7-15.7c2.6-11.5,6.1-19.8,14.8-19.8c7.6,0,21.7,14.1,21.7,37
		c0,20.3-8,30.9-11.1,53.5c-2.3,14.9-1.1,29,0.4,33.3c-2.6-3.9-5-9.2-6.5-16.8c-5.4-26.8,3.9-57.3,3.9-57.3s-11.1,25.9-7.6,53.8
		c0.8,5.4,1.5,9.6,2.3,12.6c-2.6-3.9-5.7-9.6-7.6-16.1c-4.2-14.9-3-30.9-3-30.9s-2.3,16.4,0,28.7c3.9,17.6,10.7,28.7,25.6,36.3
		c-5.7-17.9-6.5-35.5,1.5-60.8c3.5-10.7,9.1-22.9,9.1-37c0-24.1-18.7-40.1-29-40.1c-10,0-14.5,8-16.8,15.3
		c-3.5-6.5-9.5-11.5-17.6-11.5c-8.4,0-13.7,5-17.2,11.1c-1.9-7.2-6.9-15.3-16.8-15.3c-10.7,0-29,16.1-29,40.1
		c0,14.1,5.7,26.4,9.1,37c8,25.2,7.2,42.8,1.5,60.8c14.8-7.6,21.7-18.7,25.6-36.3c2.6-12.2,0-28.7,0-28.7s1.1,16.1-3,30.9
		c-1.9,6.5-5.4,12.2-7.6,16.1c0.8-3.1,1.5-7.2,2.3-12.6c3.5-27.5-7.6-53.8-7.6-53.8s9.1,30.5,4.2,56.9c-1.5,7.6-3.9,13-6.5,16.8
		c1.9-4.2,2.6-18.3,0.4-33.3c-3-22.6-11.1-33.3-11.1-53.5c0-22.9,14.1-37,21.7-37c8.7,0,12.2,8.8,14.8,19.8
		c2.3,11.1,6.5,15.7,11.5,15.7c1.5,0,3.9-1.9,3.9-5.4c0.8,3.1,2.6,5.4,6.1,6.1c2.3,0.4,3,0.8,6.5,1.5c5,1.1,7.2,5,8.7,10.3
		c1.5,5.4,1.5,6.5,1.9,8c0.4,3.1,0.8,7.2-1.1,10.7c-3.5,6.1-6.9,9.2-10,11.5c0,0,3.9-0.8,6.9-2.6c0,12.2,0,29,1.9,45.9
		c0.4,2.3,0.4,4.6,0.8,6.5c0,0.4,2.3,9.2,2.3,10l-3-10l-17-43.3c3.5-1.5,5-4.2,5-4.2s-3.5,1.5-7.2,1.9c-1.5,0.4-3-0.8-3.9-1.9
		c-0.4-0.8-1.1-2.3-1.1-2.3s-0.4,1.1,0,3.1c0.4,2.6,1.9,4.2,4.2,4.6l27.4,71.4c-7.2,2.3-15.2,3.1-23.7,3.1c-8.4,0-16.4-1.1-23.7-3.5
		c1.5-4.2,4.6-15.3,6.9-35.5c0.4-3.9,0.8-7.2,0.8-11.1c0,1.5,0.8,6.1,3.9,11.8c6.5,13,12.6,17.2,12.6,17.2s-4.2-4.6-10.3-17.9
		c-6.1-13-5.7-22.6-5.7-25.9c0.4-15.3,0-28.3,0-34c0-1.9-0.8-2.6-0.8-2.6s-8.7,6.5-12.2,2.6s0.4-14.9,4.2-18.3c0,0-3.9,3.1-6.5,7.2
		c-2.6,4.2-5,12.2-1.1,15.3c3.5,2.6,9.1,0.4,13-2.3c0.4-0.4,1.5-1.9,1.5-1.9l-1.1,2.6c0,0,0,6.1,0,16.8c0,21.1-2.6,52.3-11.5,73.8
		c-33.9-12.6-56.5-45.9-56.5-85.2c0-49.7,36.7-89.8,86.2-89.8c49.6,0,86.2,40.1,86.2,89.8C276.1,238.6,253.1,272.3,219.2,284.9z
		 M189.8,103.3c-53.4,0-96.5,43.1-96.5,96.7c0,53.5,43.1,96.7,96.5,96.7s96.5-43.1,96.5-96.7C286,146.5,242.9,103.3,189.8,103.3z"/>
</g>
</svg>
