<?xml version="1.0" encoding="utf-8"?>
<!-- Generator: Adobe Illustrator 24.2.3, SVG Export Plug-In . SVG Version: 6.00 Build 0)  -->
<svg version="1.1" id="Layer_1" xmlns="http://www.w3.org/2000/svg" xmlns:xlink="http://www.w3.org/1999/xlink" x="0px" y="0px"
	 viewBox="0 0 1000 400" style="enable-background:new 0 0 1000 400;" xml:space="preserve">
<style type="text/css">
	.st0{fill-rule:evenodd;clip-rule:evenodd;fill:#00313D;}
</style>
<g>
	<path id="path42" class="st0" d="M628.5,238.6h35.7v11h-22.5v5.2h20.2v10.4h-20.2v5.2h23.1v10.9h-36.3V238.6 M556.5,254.1
		c-0.6-1.2-1.7-5.8-7-5.8c-6.3,0-8.1,5.8-8.1,11.6c0,5.8,1.7,11.6,8.1,11.6c4.6,0,6.4-2.9,7-7h12.7c-0.2,10.1-8.5,18.1-18.6,17.9
		c-0.1,0-0.3,0-0.4,0c-14.4,0-21.9-9.8-21.9-22.5c0-13.3,8.6-22.5,21.9-22.5c11.6,0,17.9,6.3,19,16.7L556.5,254.1 M430.2,238.7h13.3
		l12.7,23.2v-23.2h12.7v42.7h-12.7l-13.3-23v23h-12.7V238.7 M344.9,266.2l4-13.3l4,13.3H344.9z M327,281.2h13.3l1.7-5.7h13.9
		l1.7,5.7h13.9L356,238.6h-13.3l-15.6,42.7 M231.3,238.6h13.3v15h12.7v-15h13.3v42.7h-13.3v-16.7h-12.7v16.7h-13.3V238.6
		 M159.2,254.1c-0.6-1.2-1.7-5.8-7-5.8c-6.4,0-8.1,5.8-8.1,11.6c0,5.8,1.7,11.6,8.1,11.6c4.6,0,6.3-2.9,7-7h12.7
		c-0.2,10.1-8.5,18.1-18.5,17.9c-0.2,0-0.3,0-0.5,0c-14.4,0-21.9-9.8-21.9-22.5c0-13.3,8.6-22.5,21.9-22.5c11.6,0,17.9,6.3,19,16.7
		L159.2,254.1 M841.3,129.7h4c5.3-0.5,9.9,3.5,10.4,8.7c0,0.4,0,0.7,0,1.1c0,4-1.2,10.9-9.8,10.9h-4.6L841.3,129.7L841.3,129.7z
		 M828,161.4h19.1c15,0,21.9-8.6,21.9-21.3c0-11-5.2-21.9-19.6-21.9h-21.3L828,161.4 M740.9,128.5h6.3c5.2,0,6.4,1.7,6.4,4.6
		c0,3.5-2.9,4-5.8,4h-7L740.9,128.5L740.9,128.5z M727.7,161.3h13.3v-15h7.5c5.2,0,5.2,4,5.8,8.1c0.1,2.4,0.5,4.7,1.1,7h13.3
		c-1.1-2.3-1.1-7-1.7-9.3c-0.6-5.2-2.3-9.3-6.4-11c4.6-1.1,6.4-6.3,6.4-10.4c0-8.1-6.4-12.7-13.9-12.7h-25.3V161.3 M638.9,140
		c0-9.8,5.2-12.1,8.1-12.1c3.5,0,8.6,2.3,8.6,12.1c0,9.3-5.2,11.6-8.6,11.6C644.1,151.5,638.9,149.2,638.9,140L638.9,140z
		 M625.6,140c0,12.7,8.6,22.5,21.3,22.5c13.3,0,21.9-9.8,21.9-22.5c0-13.3-8.6-22.5-21.9-22.5C634.3,117.5,625.6,126.8,625.6,140
		 M531.1,118.1h33.4v11.6h-20.2v5.1h17.3v9.8h-17.3v16.7h-13.3V118.1 M431.4,118.1h33.5v11.6h-20.2v5.1H462v9.8h-17.3v16.7h-13.3
		V118.1 M339.7,161.3h13.3v-43.2h-13.3V161.3z M235.4,118.1h13.3v32.3h18.9v11h-32.2L235.4,118.1 M159.2,134.3
		c-0.6-1.7-1.7-6.3-7-6.3c-6.3,0-8.1,6.3-8.1,12.1s1.7,11.6,8.1,11.6c4.6,0,6.4-2.9,7-7h12.7c-0.2,10.1-8.5,18.1-18.6,17.9
		c-0.1,0-0.3,0-0.4,0c-14.4,0-21.9-9.8-21.9-22.5c0-13.9,8.6-22.5,21.9-22.5c11.6,0,17.9,6.3,19,16.7L159.2,134.3"/>
</g>
</svg>
