<?xml version="1.0" encoding="utf-8"?>
<!-- Generator: Adobe Illustrator 24.2.3, SVG Export Plug-In . SVG Version: 6.00 Build 0)  -->
<svg version="1.1" id="Layer_1" xmlns="http://www.w3.org/2000/svg" xmlns:xlink="http://www.w3.org/1999/xlink" x="0px" y="0px"
	 viewBox="0 0 1000 400" style="enable-background:new 0 0 1000 400;" xml:space="preserve">
<style type="text/css">
	.st0{fill:#00313D;}
</style>
<g id="layer1">
	<path id="path276" class="st0" d="M801.7,175.1c-11.1,0-17.5,5.8-17.5,14.2c0,15.6,20.9,11.3,20.9,21.4c0,5.2-4.4,7.5-9.5,7.5
		c-3.4,0-6.7-0.7-9.9-1.8l-0.3,7.3c3.1,0.8,6.3,1.2,9.5,1.2c11.4,0,18.3-6.5,18.3-15.4c0-15.1-20.8-11.6-20.8-21.2
		c0-4,2.9-6.9,8.9-6.9c2.9,0,5.8,0.5,8.6,1.4l0.5-6.8C807.5,175.4,804.6,175.1,801.7,175.1L801.7,175.1z M124,175.8v48.4h28.6v-6.7
		h-21v-41.7H124z M181.7,175.8l-17.1,48.4h7.8l3.6-10.7h19.3l3.7,10.7h8.5l-17.3-48.4H181.7z M215.6,175.8v6.6h13.1v41.8h7.7v-41.8
		h13.1v-6.6H215.6z M264,175.8v48.4h7.6v-21.7h22.6v21.7h7.6v-48.4h-7.6v20h-22.6v-20H264z M334.2,175.8l-17.1,48.4h7.7l3.7-10.7
		H348l3.6,10.7h8.5l-17.3-48.4H334.2z M380.3,175.8l-7.1,48.4h7.9l3-25c0.5-4.6,1-8.3,1.2-12.5c0.8,3.9,1.9,7.7,3.2,11.4l8.5,26.1h8
		l9-28.1c1-3.1,1.8-6.2,2.5-9.4c0.5,3.2,0.9,6.6,1.7,11.8l3.7,25.7h8.1l-7.3-48.4h-9.3l-9.3,28.3c-1.1,3.1-2,6.3-2.7,9.5
		c-0.7-3.2-1.6-6.4-2.7-9.9l-9.2-28H380.3z M478.6,175.8l12.3,48.4h9l8.1-30c0.8-3,1.3-6,1.7-9c0.5,3.1,1.1,6.1,1.9,9.1l8.1,29.9
		h9.4l12.3-48.4h-7.6l-7.4,30.4c-0.7,2.7-1.2,5.4-1.7,8.4c-0.6-3.1-1.3-6.3-2-8.9l-8.3-29.9H506l-8.1,29.8c-0.8,3-1.5,6.1-1.9,9.2
		c-0.5-3.2-1.1-6.4-1.9-9.5l-7.3-29.4L478.6,175.8z M565.8,175.8l-17.1,48.4h7.7l3.7-10.7h19.3l3.6,10.7h8.5l-17.3-48.4H565.8z
		 M597.6,175.8v6.6h13.1v41.8h7.6v-41.8h13.1v-6.6H597.6z M647.5,175.8v48.4h7.6v-23.6l17.3,23.6h10.2l-19.6-25l19-23.4h-9.4
		L655,198.2v-22.5H647.5z M698.7,175.8v48.4h7.7v-48.4H698.7z M727.9,175.8v48.4h7.4v-16.3c0-6.9-0.2-16.7-0.5-21.5
		c1.6,3.5,3.4,6.9,5.4,10.2l16.3,27.6h9.9v-48.4h-7.4v14.4c0,7.1,0.2,17.4,0.5,23c-1.8-3.5-3.6-7.4-5.7-11l-15.8-26.4L727.9,175.8z
		 M185.5,184.7c0.7,2.6,1.3,4.9,2.2,7.4l5.5,15.3H178l5.4-15.1C184.3,189.8,185,187.2,185.5,184.7z M338.1,184.7
		c0.7,2.6,1.3,4.9,2.3,7.4l5.4,15.3h-15.2l5.3-15.1C336.8,189.8,337.5,187.2,338.1,184.7z M569.7,184.7c0.7,2.6,1.3,4.9,2.3,7.4
		l5.4,15.3h-15.1l5.3-15.1C568.4,189.8,569.1,187.2,569.7,184.7L569.7,184.7z M453.7,186c-3.9,0-6.7,2.6-6.7,6.1
		c-0.1,1.4,0.2,2.7,1,3.8c-3.1,1.6-5,4.7-4.9,8.2c0,5.6,5.3,9.2,10.7,9.2c3.7,0,7.3-1.5,9.9-4.2l4.7,3.6l1.8-2l-4.8-3.9
		c1.1-1.9,1.6-4,1.5-6.2c0-1.5-0.5-3-1.2-4.4l-2.5,0.9c0.8,1.2,1.2,2.7,1.1,4.2c0.1,1.3-0.2,2.6-0.9,3.7l-7-5.7c2.5-2,4.1-3.7,4.1-7
		C460.1,188.8,457.2,186,453.7,186L453.7,186z M828.7,188.4V210h12.5v-3h-9.3v-18.6L828.7,188.4z M845.8,188.4V210h12.3v-3h-9.3
		v-18.6L845.8,188.4z M862.6,188.4V210h3v-8.3h3.4c5,0,7-3.1,7-6.7s-2-6.6-7-6.6H862.6z M453.4,188.8c2.7,0,3.9,1.5,3.9,3.5
		c0,2.2-1.3,4.2-3.3,5.2c-2.6-2.1-4-2.9-4-5.1c-0.3-1.7,0.9-3.3,2.7-3.6C453,188.8,453.2,188.8,453.4,188.8L453.4,188.8z
		 M865.7,190.8h3c3.3,0,4.6,1.9,4.6,4c0.2,2.1-1.3,4.1-3.5,4.3c-0.3,0-0.5,0-0.8,0h-3.4V190.8z M450.2,198.1l11.2,9.2
		c-1.7,2-5.1,2.9-7.6,2.8c-3.6,0-7.5-1.9-7.5-6.2C446.3,201.4,447.8,199.1,450.2,198.1L450.2,198.1z"/>
</g>
</svg>
