<?xml version="1.0" encoding="utf-8"?>
<!-- Generator: Adobe Illustrator 24.2.3, SVG Export Plug-In . SVG Version: 6.00 Build 0)  -->
<svg version="1.1" id="Layer_1" xmlns="http://www.w3.org/2000/svg" xmlns:xlink="http://www.w3.org/1999/xlink" x="0px" y="0px"
	 viewBox="0 0 1000 400" style="enable-background:new 0 0 1000 400;" xml:space="preserve">
<style type="text/css">
	.st0{fill:#01313C;}
</style>
<g>
	<g>
		<g>
			<g>
				<path class="st0" d="M377.5,177.3c6.6,0,13.4,2.7,18.3,7.3l0.8,0.7l7.5-9.7l-0.7-0.6c-6.8-5.9-16.5-9.5-25.9-9.5
					c-20.7,0-36.2,14.7-36.2,34.2c0,19.3,15.6,34.4,35.6,34.4c9,0,19.1-3.4,26.2-8.8l0.4-0.3v-25.7h-25.3v10.5h13.7v8.3
					c-4.5,2.6-9.7,4.1-14.2,4.1c-12.9,0-23.1-9.9-23.1-22.4C354.5,187.1,364.6,177.3,377.5,177.3z"/>
				<path class="st0" d="M453.6,165.5c-20.4,0-35.9,14.7-35.9,34.2c0,19.3,15.7,34.4,35.9,34.4c20.1,0,35.9-15.1,35.9-34.4
					C489.4,180.5,473.7,165.5,453.6,165.5z M453.7,222.1c-12.5,0-22.7-10.1-22.7-22.4c0-12.3,10.2-22.3,22.7-22.3
					c12.6,0,22.4,9.8,22.4,22.3C476.1,212,466,222.1,453.7,222.1z"/>
				<path class="st0" d="M536.4,165.5c-20.4,0-35.9,14.7-35.9,34.2c0,19.3,15.8,34.4,35.9,34.4c20.1,0,35.9-15.1,35.9-34.4
					C572.3,180.5,556.5,165.5,536.4,165.5z M536.5,222.1c-12.5,0-22.7-10.1-22.7-22.4c0-12.3,10.2-22.3,22.7-22.3
					c12.6,0,22.5,9.8,22.5,22.3C559,212,548.9,222.1,536.5,222.1z"/>
				<path class="st0" d="M614.3,165.8h-28v67.8H614c20.5,0,35.3-14.2,35.3-33.9C649.3,180,634.6,165.8,614.3,165.8z M614.6,221.6
					h-15.2v-43.9h14.7c12.6,0,22.1,9.5,22.1,22.1C636.2,212.4,627.1,221.6,614.6,221.6z"/>
				<polygon class="st0" points="726,216.9 710.7,165.8 698.4,165.9 683.2,216.9 668,165.8 653.9,165.8 676.4,233.5 689.3,233.5 
					704.4,184.6 719.3,233.5 732.1,233.5 754.7,165.8 741.2,165.8 				"/>
				<rect x="767.1" y="165.8" class="st0" width="13" height="67.8"/>
				<polygon class="st0" points="844.9,165.8 844.9,211.1 811.1,165.8 798.8,165.8 798.8,233.5 811.8,233.5 811.8,188.3 
					845.4,233.5 857.8,233.5 857.8,165.8 				"/>
			</g>
		</g>
	</g>
	<g>
		<g>
			<polygon class="st0" points="142.2,150.5 142.2,247.5 175.3,232 175.3,166 			"/>
			<path class="st0" d="M249.2,230.5l-31.2,14.6c-4,1.9-10.6,1.9-14.6,0l-28-13.1l-33.1,15.5l68.4,32l61.1-28.6
				c4-1.9,7.3-7,7.3-11.4v-68.8c0-4.4-3.3-6.5-7.3-4.6l-57.8,27v23.6c0,4.4,2.3,6.9,6.3,5.1l21.7-10.1c4-1.9,7.3,0.2,7.3,4.6
				L249.2,230.5z"/>
			<path class="st0" d="M175.3,166l35.3-16.6L246,166l25.7-12c4-1.9,4-4.9,0-6.8L217.9,122c-4-1.9-10.6-1.9-14.6,0l-61.1,28.6
				L175.3,166"/>
		</g>
	</g>
</g>
</svg>
