<svg id="Layer_1" data-name="Layer 1" xmlns="http://www.w3.org/2000/svg" viewBox="0 0 356 252.92"><defs><style>.cls-1{fill:#f5f7f9;}.cls-2{fill:#0b643d;}.cls-3,.cls-4{fill:#2d3335;}.cls-3{opacity:0.4;}.cls-10,.cls-12,.cls-3,.cls-6,.cls-9{isolation:isolate;}.cls-10,.cls-11,.cls-12,.cls-5{fill:#fff;}.cls-5{stroke:#eee;stroke-miterlimit:10;stroke-width:0.5px;}.cls-6{fill:#596266;opacity:0.25;}.cls-7{fill:#dfe3e8;}.cls-8{fill:#11748b;}.cls-10{opacity:0.33;}.cls-12{opacity:0.5;}</style></defs><title>dashboard</title><rect class="cls-1" width="356" height="252.92" rx="2" ry="2"/><path class="cls-2" d="M2,0H38.67a2,2,0,0,1,2,2V252.92H2a2,2,0,0,1-2-2V2A2,2,0,0,1,2,0Z"/><rect class="cls-3" y="14.03" width="40.67" height="9.98"/><path class="cls-4" d="M2,0H354a2,2,0,0,1,2,2V13.92H0V2A2,2,0,0,1,2,0Z"/><rect class="cls-5" x="45.41" y="89.15" width="150.35" height="89.58" rx="2" ry="2"/><rect class="cls-5" x="199.12" y="89.15" width="150.35" height="51.91" rx="2" ry="2"/><rect class="cls-5" x="199.12" y="31.13" width="73.65" height="50.05" rx="2" ry="2"/><rect class="cls-5" x="275.82" y="31.13" width="73.65" height="50.05" rx="2" ry="2"/><rect class="cls-5" x="199.12" y="145.32" width="150.35" height="34.7" rx="2" ry="2"/><rect class="cls-5" x="199.12" y="182.51" width="150.35" height="62.19" rx="2" ry="2"/><rect class="cls-5" x="45.41" y="31.13" width="150.35" height="50.05" rx="2" ry="2"/><rect class="cls-5" x="45.41" y="182.2" width="150.35" height="54.52" rx="2" ry="2"/><path class="cls-4" d="M50.89,95.46h1.66a2.44,2.44,0,0,1,1,.15A1.46,1.46,0,0,1,54.43,97a1.48,1.48,0,0,1-.87,1.4h0a1.38,1.38,0,0,1,.17.25l1.06,1.92h-1l-1-1.92h-.9v1.92H51Zm1.78,2.42a.75.75,0,0,0,.81-.68v-.13c0-.5-.21-.8-.94-.8h-.71v1.61Z"/><path class="cls-4" d="M57.09,96.83a1.6,1.6,0,0,1,1.65,1.53,1.62,1.62,0,0,1,0,.22v.36H56.16a1.05,1.05,0,0,0,1.1,1h0a1.85,1.85,0,0,0,1.06-.4l.36.66a2.38,2.38,0,0,1-1.49.53,1.9,1.9,0,0,1-2-1.8v-.14a1.82,1.82,0,0,1,1.67-2Zm.71,1.48a.72.72,0,0,0-.65-.77h-.08a.85.85,0,0,0-.88.77Z"/><path class="cls-4" d="M59,96.91h1l.77,2.29c.07.22.12.56.13.56h0A5.44,5.44,0,0,1,61,99.2l.77-2.29h1l-1.32,3.7H60.33Z"/><path class="cls-4" d="M63.26,95.46h.91v.82h-.91Zm0,1.45h.92v3.7h-.92Z"/><path class="cls-4" d="M66.81,96.83a1.61,1.61,0,0,1,1.65,1.55,1.34,1.34,0,0,1,0,.2v.36H65.87a1.05,1.05,0,0,0,1.1,1h0a1.9,1.9,0,0,0,1.07-.4l.35.66a2.28,2.28,0,0,1-1.48.53,1.9,1.9,0,0,1-2-1.8v-.14a1.82,1.82,0,0,1,1.67-2Zm.71,1.48a.72.72,0,0,0-.67-.77h-.06a.87.87,0,0,0-.89.77Z"/><path class="cls-4" d="M68.8,96.91h1l.65,2.43c0,.13,0,.26.07.39h0a1.17,1.17,0,0,1,.08-.39l.68-2.42h.82l.68,2.42a2.7,2.7,0,0,1,.08.39h0a1.17,1.17,0,0,1,.08-.39l.64-2.43h1l-1.12,3.7h-1l-.63-2.11a2.59,2.59,0,0,1-.09-.4h0a1.17,1.17,0,0,1-.08.4L71,100.61H70Z"/><path class="cls-4" d="M76.78,96.83a1.61,1.61,0,0,1,1.65,1.55,1.34,1.34,0,0,1,0,.2v.36H75.84a1.05,1.05,0,0,0,1.1,1h0a1.9,1.9,0,0,0,1.07-.4l.35.66a2.28,2.28,0,0,1-1.48.53,1.9,1.9,0,0,1-2-1.8v-.14a1.82,1.82,0,0,1,1.67-2Zm.71,1.48a.72.72,0,0,0-.67-.77h-.06a.86.86,0,0,0-.89.77Z"/><path class="cls-4" d="M80.6,96.83a1.13,1.13,0,0,1,1.06.47h0V95.46h.92v5.15h-.87v-.3a1,1,0,0,1,0-.24h0a1.28,1.28,0,0,1-1.16.63c-1,0-1.64-.79-1.64-1.94a1.73,1.73,0,0,1,1.52-1.92Zm.17,3.09c.48,0,.93-.35.93-1.17,0-.57-.3-1.13-.92-1.13s-.93.41-.93,1.14S80.23,99.92,80.77,99.92Z"/><path class="cls-4" d="M85.51,95.46h1.76a2.58,2.58,0,1,1,.32,5.15,1.71,1.71,0,0,1-.32,0H85.51Zm1.71,4.35a1.77,1.77,0,0,0,0-3.54h-.77v3.54Z"/><path class="cls-4" d="M92.48,96.83a1.94,1.94,0,1,1-2,1.93,1.94,1.94,0,0,1,2-1.93Zm0,3.08a1.15,1.15,0,1,0-1.1-1.2v.05a1.09,1.09,0,0,0,1,1.15h.07Z"/><path class="cls-4" d="M97,96.83a1.93,1.93,0,0,1,1.42.55L98,98a1.44,1.44,0,0,0-1-.4,1.1,1.1,0,0,0-1.13,1.07v.07A1.12,1.12,0,0,0,97,99.9H97a1.69,1.69,0,0,0,1.08-.47l.36.66a2.11,2.11,0,0,1-1.52.6,1.94,1.94,0,0,1-.28-3.87H97Z"/><path class="cls-4" d="M99.16,96.91h.92V99.1c0,.45.11.76.57.76a1.12,1.12,0,0,0,1-1.23V96.91h.92v3.7h-.89v-.42a1.13,1.13,0,0,1,0-.26h0a1.43,1.43,0,0,1-1.28.77c-.79,0-1.28-.4-1.28-1.41Z"/><path class="cls-4" d="M103.62,96.91h.89v.43a1,1,0,0,1,0,.25h0a1.39,1.39,0,0,1,1.2-.76,1,1,0,0,1,1.08.76h0a1.44,1.44,0,0,1,1.26-.76c.77,0,1.21.43,1.21,1.4v2.38h-.92v-2.2c0-.42-.08-.74-.51-.74a1,1,0,0,0-.89.84,1.93,1.93,0,0,0,0,.48v1.62H106v-2.2c0-.4-.06-.74-.5-.74a1,1,0,0,0-.9.85,1.85,1.85,0,0,0,0,.47v1.62h-.92Z"/><path class="cls-4" d="M111.86,96.83a1.61,1.61,0,0,1,1.65,1.55,1.34,1.34,0,0,1,0,.2v.36h-2.56a1.05,1.05,0,0,0,1.1,1h0a1.9,1.9,0,0,0,1.07-.4l.35.66a2.28,2.28,0,0,1-1.48.53,1.9,1.9,0,0,1-2-1.8v-.14a1.82,1.82,0,0,1,1.67-2Zm.71,1.48a.72.72,0,0,0-.65-.77h-.08a.87.87,0,0,0-.89.77Z"/><path class="cls-4" d="M114.26,96.91h.88v.68h0a1.45,1.45,0,0,1,1.32-.76c.81,0,1.28.42,1.28,1.4v2.38h-.91V98.42c0-.45-.12-.75-.59-.75a1,1,0,0,0-1,.75,1.35,1.35,0,0,0-.07.49v1.7h-.92Z"/><path class="cls-4" d="M118.86,97.7h-.47V97h.5V95.91h.89V97h.84v.73h-.84v1.44a.64.64,0,0,0,.6.69.33.33,0,0,0,.14,0h.16v.8a1.31,1.31,0,0,1-.28,0,1.36,1.36,0,0,1-1.53-1.17,1.69,1.69,0,0,1,0-.23Z"/><path class="cls-4" d="M121.55,99.51a1.54,1.54,0,0,0,1,.4c.26,0,.49-.11.49-.33,0-.55-1.8-.48-1.8-1.67,0-.68.62-1.08,1.41-1.08a1.8,1.8,0,0,1,1.24.42l-.34.68a1.4,1.4,0,0,0-.9-.32c-.24,0-.47.1-.47.33,0,.52,1.79.46,1.79,1.65,0,.61-.53,1.11-1.41,1.11a2,2,0,0,1-1.43-.55Z"/><rect class="cls-6" x="50.3" y="111.58" width="11.31" height="2.44" rx="0.75" ry="0.75"/><rect class="cls-6" x="50.3" y="118.45" width="11.31" height="2.44" rx="0.75" ry="0.75"/><rect class="cls-6" x="50.3" y="125.32" width="26.2" height="2.44" rx="0.75" ry="0.75"/><rect class="cls-6" x="50.3" y="132.19" width="16.27" height="2.44" rx="0.75" ry="0.75"/><rect class="cls-6" x="50.3" y="139.07" width="25.55" height="2.44" rx="0.75" ry="0.75"/><rect class="cls-6" x="50.3" y="145.94" width="21.74" height="2.44" rx="0.75" ry="0.75"/><rect class="cls-6" x="50.3" y="152.81" width="21.74" height="2.44" rx="0.75" ry="0.75"/><rect class="cls-6" x="50.3" y="159.68" width="15.55" height="2.44" rx="0.75" ry="0.75"/><rect class="cls-6" x="50.3" y="166.55" width="25.94" height="2.44" rx="0.75" ry="0.75"/><rect class="cls-7" x="80.19" y="110.43" width="100" height="4.73" rx="0.75" ry="0.75"/><rect class="cls-7" x="80.19" y="117.31" width="93.43" height="4.73" rx="0.75" ry="0.75"/><rect class="cls-7" x="80.19" y="124.18" width="63.54" height="4.73" rx="0.75" ry="0.75"/><rect class="cls-7" x="80.19" y="131.05" width="50" height="4.73" rx="0.75" ry="0.75"/><rect class="cls-7" x="80.19" y="144.79" width="36.61" height="4.73" rx="0.75" ry="0.75"/><rect class="cls-7" x="80.19" y="151.66" width="33.49" height="4.73" rx="0.75" ry="0.75"/><rect class="cls-1" x="80.19" y="158.53" width="3.25" height="4.73" rx="0.75" ry="0.75"/><rect class="cls-8" x="80.19" y="110.43" width="40" height="4.73" rx="0.75" ry="0.75"/><rect class="cls-8" x="80.19" y="117.31" width="23.26" height="4.73" rx="0.75" ry="0.75"/><rect class="cls-8" x="80.19" y="124.18" width="16.83" height="4.73" rx="0.75" ry="0.75"/><rect class="cls-8" x="80.19" y="131.05" width="26.86" height="4.73" rx="0.75" ry="0.75"/><rect class="cls-8" x="80.19" y="137.92" width="43.66" height="4.73" rx="0.75" ry="0.75"/><rect class="cls-8" x="80.19" y="144.79" width="23.26" height="4.73" rx="0.75" ry="0.75"/><rect class="cls-8" x="80.19" y="158.53" width="3.25" height="4.73" rx="0.75" ry="0.75"/><rect class="cls-7" x="80.19" y="165.41" width="3.25" height="4.73" rx="0.75" ry="0.75"/><path class="cls-4" d="M50.89,188.82h1.76A2.58,2.58,0,1,1,53,194H50.89Zm1.71,4.35a1.77,1.77,0,0,0,0-3.54h-.77v3.54Z"/><path class="cls-4" d="M57.86,190.19a1.94,1.94,0,1,1-2,1.93,1.94,1.94,0,0,1,2-1.93Zm0,3.08a1.15,1.15,0,1,0-1.1-1.2v.05a1.09,1.09,0,0,0,1,1.15h.07Z"/><path class="cls-4" d="M62.38,190.19a1.93,1.93,0,0,1,1.42.55l-.41.63a1.44,1.44,0,0,0-1-.4A1.1,1.1,0,0,0,61.26,192v.07a1.12,1.12,0,0,0,1.08,1.16h.08a1.69,1.69,0,0,0,1.08-.47l.36.66a2.11,2.11,0,0,1-1.52.6,1.94,1.94,0,0,1-.28-3.87h.32Z"/><path class="cls-4" d="M64.54,190.27h.92v2.19c0,.45.11.76.57.76A1.12,1.12,0,0,0,67,192v-1.72h1V194h-.9v-.42a1.13,1.13,0,0,1,0-.26h0a1.43,1.43,0,0,1-1.28.77c-.79,0-1.28-.4-1.28-1.41Z"/><path class="cls-4" d="M69,190.27h.89v.43a1,1,0,0,1,0,.25h0a1.39,1.39,0,0,1,1.2-.76,1,1,0,0,1,1.08.76h0a1.49,1.49,0,0,1,1.27-.76c.76,0,1.21.43,1.21,1.4V194h-.92v-2.2c0-.42-.08-.74-.51-.74a1,1,0,0,0-.89.84,1.93,1.93,0,0,0,0,.48V194h-.92v-2.2c0-.4-.06-.74-.5-.74a1,1,0,0,0-.9.85,1.85,1.85,0,0,0,0,.47V194H69Z"/><path class="cls-4" d="M77.24,190.19a1.61,1.61,0,0,1,1.65,1.55,1.34,1.34,0,0,1,0,.2v.36H76.3a1.05,1.05,0,0,0,1.1,1h0a1.9,1.9,0,0,0,1.07-.4l.35.66a2.28,2.28,0,0,1-1.48.53,1.9,1.9,0,0,1-2-1.8v-.14a1.82,1.82,0,0,1,1.67-2Zm.71,1.48a.72.72,0,0,0-.67-.77h-.06a.87.87,0,0,0-.89.77Z"/><path class="cls-4" d="M79.64,190.27h.88V191h0a1.43,1.43,0,0,1,1.31-.76c.82,0,1.29.42,1.29,1.4V194H82.2v-2.19c0-.45-.11-.75-.58-.75a1,1,0,0,0-1,.75,1.35,1.35,0,0,0-.06.49V194h-.92Z"/><path class="cls-4" d="M84.24,191.06h-.48v-.73h.5v-1.06h.9v1.06H86v.73h-.84v1.44a.65.65,0,0,0,.6.69h.3v.8h-.28a1.36,1.36,0,0,1-1.53-1.17,1.69,1.69,0,0,1,0-.23Z"/><path class="cls-4" d="M86.92,192.87a1.56,1.56,0,0,0,1,.4c.26,0,.49-.11.49-.33,0-.55-1.8-.48-1.8-1.67,0-.69.62-1.08,1.41-1.08a1.8,1.8,0,0,1,1.24.42l-.34.68A1.39,1.39,0,0,0,88,191c-.24,0-.47.1-.47.33,0,.52,1.79.46,1.79,1.65,0,.61-.53,1.11-1.41,1.11a2.08,2.08,0,0,1-1.44-.55Z"/><path class="cls-4" d="M92.26,188.82h1l1,2.55c.11.3.26.75.26.75h0s.14-.45.26-.75l1-2.55h1L97.2,194h-.93l-.22-2.88v-.8h0s-.15.5-.27.8l-.84,2h-.82l-.82-2c-.13-.3-.29-.8-.29-.8h0v.8L92.77,194h-.93Z"/><path class="cls-4" d="M98.22,188.82h.91v.82h-.91Zm0,1.45h.92V194h-.92Z"/><path class="cls-4" d="M100.26,192.87a1.56,1.56,0,0,0,1,.4c.26,0,.49-.11.49-.33,0-.55-1.8-.48-1.8-1.67,0-.69.62-1.08,1.41-1.08a1.8,1.8,0,0,1,1.24.42l-.34.68a1.4,1.4,0,0,0-.9-.32c-.24,0-.47.1-.47.33,0,.52,1.79.46,1.79,1.65,0,.61-.53,1.11-1.41,1.11a2.08,2.08,0,0,1-1.44-.55Z"/><path class="cls-4" d="M103.54,192.87a1.56,1.56,0,0,0,1,.4c.26,0,.48-.11.48-.33,0-.55-1.79-.48-1.79-1.67,0-.69.61-1.08,1.41-1.08a1.8,1.8,0,0,1,1.24.42l-.34.68a1.44,1.44,0,0,0-.91-.32c-.24,0-.47.1-.47.33,0,.52,1.8.46,1.8,1.65,0,.61-.54,1.11-1.41,1.11a2.08,2.08,0,0,1-1.44-.55Z"/><path class="cls-4" d="M106.71,188.82h.91v.82h-.91Zm0,1.45h.92V194h-.92Z"/><path class="cls-4" d="M108.65,190.27h.88V191h0a1.43,1.43,0,0,1,1.31-.76c.82,0,1.28.42,1.28,1.4V194h-.91v-2.19c0-.45-.11-.75-.59-.75a1,1,0,0,0-1,.75,1.35,1.35,0,0,0-.06.49V194h-.92Z"/><path class="cls-4" d="M114.49,194.71c.56,0,1-.24,1-.9v-.41h0a1.13,1.13,0,0,1-1,.5,1.7,1.7,0,0,1-1.67-1.73s0-.09,0-.14a1.65,1.65,0,0,1,1.45-1.83h.19a1.26,1.26,0,0,1,1.1.47h0v-.39h.86v3.48a1.72,1.72,0,0,1-1.7,1.76,1.51,1.51,0,0,1-.3,0,3.12,3.12,0,0,1-1.31-.32l.28-.7A2.55,2.55,0,0,0,114.49,194.71Zm1.06-2.68c0-.84-.41-1.06-.91-1.06a.91.91,0,0,0-.87,1,1,1,0,0,0,.93,1.12c.44,0,.85-.22.85-1.09Z"/><path class="cls-4" d="M121.67,188.74a2.63,2.63,0,0,1,1.89.7l-.44.7a2.28,2.28,0,0,0-1.41-.55,1.68,1.68,0,0,0-1.73,1.63v.14a1.74,1.74,0,0,0,1.64,1.84h.1a2.21,2.21,0,0,0,1.49-.65l.49.67a2.78,2.78,0,0,1-2,.84,2.66,2.66,0,0,1,0-5.32Z"/><path class="cls-4" d="M124.42,188.82h.92v2.1h0a1.42,1.42,0,0,1,1.28-.73c.82,0,1.28.42,1.28,1.4V194H127v-2.19c0-.45-.12-.75-.59-.75a1,1,0,0,0-1,.76,2,2,0,0,0-.06.48V194h-.92Z"/><path class="cls-4" d="M130.74,191.65h.13v-.05c0-.49-.31-.65-.71-.65a2,2,0,0,0-1,.35l-.35-.66a2.59,2.59,0,0,1,1.45-.45,1.36,1.36,0,0,1,1.53,1.18.94.94,0,0,1,0,.29V194H131v-.3a1.22,1.22,0,0,1,0-.27h0a1.2,1.2,0,0,1-1.12.66,1.17,1.17,0,0,1-1.26-1.08v-.08C128.55,191.73,130.14,191.65,130.74,191.65Zm-.7,1.69a1,1,0,0,0,.83-1v-.09h-.16c-.47,0-1.23.07-1.23.58a.49.49,0,0,0,.47.51H130Z"/><path class="cls-4" d="M132.74,190.27h.88V191h0a1.43,1.43,0,0,1,1.31-.76c.82,0,1.29.42,1.29,1.4V194h-.92v-2.19c0-.45-.11-.75-.58-.75a1,1,0,0,0-1,.75,1.35,1.35,0,0,0-.06.49V194h-.92Z"/><path class="cls-4" d="M138.58,194.71c.57,0,1-.24,1-.9v-.41h0a1.13,1.13,0,0,1-1,.5,1.7,1.7,0,0,1-1.67-1.73s0-.09,0-.14a1.65,1.65,0,0,1,1.45-1.83h.19a1.26,1.26,0,0,1,1.1.47h0v-.39h.86v3.48a1.72,1.72,0,0,1-1.71,1.75,1,1,0,0,1-.24,0,3.12,3.12,0,0,1-1.31-.32l.28-.7A2.33,2.33,0,0,0,138.58,194.71Zm1.07-2.68c0-.84-.42-1.06-.92-1.06a.91.91,0,0,0-.87,1,1,1,0,0,0,.93,1.12c.44,0,.86-.22.86-1.09Z"/><path class="cls-4" d="M143.18,190.19a1.59,1.59,0,0,1,1.64,1.54,1.48,1.48,0,0,1,0,.21v.36h-2.55a1.05,1.05,0,0,0,1.1,1h0a1.9,1.9,0,0,0,1.07-.4l.35.66a2.28,2.28,0,0,1-1.48.53,1.9,1.9,0,0,1-2-1.8v-.14a1.82,1.82,0,0,1,1.67-2Zm.71,1.48a.72.72,0,0,0-.67-.77h-.07a.86.86,0,0,0-.88.77Z"/><path class="cls-4" d="M149.09,190.19a1.94,1.94,0,1,1-2,1.93,1.94,1.94,0,0,1,2-1.93Zm0,3.08a1.15,1.15,0,1,0-1.1-1.2v.05a1.09,1.09,0,0,0,1,1.15h.07Z"/><path class="cls-4" d="M152.06,191.06h-.46v-.73h.46v-.16a1.33,1.33,0,0,1,1.27-1.39h.55v.78h-.19c-.26,0-.71.07-.71.61v.14h.79v.73H153V194h-.92Z"/><path class="cls-4" d="M158.58,188.74a2.63,2.63,0,0,1,1.9.7l-.45.7a2.25,2.25,0,0,0-1.4-.55,1.68,1.68,0,0,0-1.73,1.63v.14a1.74,1.74,0,0,0,1.64,1.84h.09a2.24,2.24,0,0,0,1.5-.65l.49.67a2.78,2.78,0,0,1-2,.84,2.66,2.66,0,0,1,0-5.32Z"/><path class="cls-4" d="M163.09,190.19a1.94,1.94,0,1,1-2,1.93,1.94,1.94,0,0,1,2-1.93Zm0,3.08a1.15,1.15,0,1,0-1.1-1.2v.05a1.09,1.09,0,0,0,1,1.15h.07Z"/><path class="cls-4" d="M165.87,190.27h.88V191h0a1.43,1.43,0,0,1,1.31-.76c.82,0,1.29.42,1.29,1.4V194h-.92v-2.19c0-.45-.11-.75-.58-.75a1,1,0,0,0-1,.75,1.35,1.35,0,0,0-.06.49V194h-.92Z"/><path class="cls-4" d="M170.47,191.06H170v-.73h.5v-1.06h.9v1.06h.84v.73h-.84v1.44a.65.65,0,0,0,.6.69h.3v.8H172a1.36,1.36,0,0,1-1.53-1.17,1.69,1.69,0,0,1,0-.23Z"/><path class="cls-4" d="M173.05,190.27h.88v.9h0a1.27,1.27,0,0,1,1.17-.95h.17v.9h-.22a1,1,0,0,0-1,.77,2.09,2.09,0,0,0-.08.61V194h-.92Z"/><path class="cls-4" d="M177.65,190.19a1.94,1.94,0,1,1-2,1.93,1.94,1.94,0,0,1,2-1.93Zm0,3.08a1.15,1.15,0,1,0-1.1-1.2v.05a1.09,1.09,0,0,0,1,1.15h.07Z"/><path class="cls-4" d="M180.38,188.82h.91v3.86c0,.41.14.51.38.51h.13v.8h-.29c-.5,0-1.13-.13-1.13-1.19Z"/><rect class="cls-7" x="80.19" y="200.02" width="100" height="4.73" rx="0.75" ry="0.75"/><rect class="cls-7" x="80.19" y="206.9" width="63.1" height="4.73" rx="0.75" ry="0.75"/><rect class="cls-8" x="80.19" y="200.02" width="79.61" height="4.73" rx="0.75" ry="0.75"/><rect class="cls-8" x="80.19" y="206.9" width="59.35" height="4.73" rx="0.75" ry="0.75"/><rect class="cls-7" x="80.19" y="213.77" width="50" height="4.73" rx="0.75" ry="0.75"/><rect class="cls-8" x="80.19" y="213.77" width="39.8" height="4.73" rx="0.75" ry="0.75"/><rect class="cls-7" x="80.19" y="220.64" width="43" height="4.73" rx="0.75" ry="0.75"/><rect class="cls-8" x="80.19" y="220.64" width="32.77" height="4.73" rx="0.75" ry="0.75"/><rect class="cls-6" x="50.3" y="201.35" width="14.7" height="2.44" rx="0.75" ry="0.75"/><rect class="cls-6" x="50.3" y="208.22" width="18.9" height="2.44" rx="0.75" ry="0.75"/><rect class="cls-6" x="50.3" y="215.09" width="20.14" height="2.44" rx="0.75" ry="0.75"/><rect class="cls-6" x="50.3" y="221.96" width="12.93" height="2.44" rx="0.75" ry="0.75"/><path class="cls-4" d="M52.1,38.25H50.41v-.81h4.31v.81H53v4.34h-.9Z"/><path class="cls-4" d="M56.43,38.81a1.94,1.94,0,1,1-2,1.93,1.94,1.94,0,0,1,2-1.93Zm0,3.08a1.15,1.15,0,1,0-1.1-1.2v.05a1.09,1.09,0,0,0,1,1.15h.07Z"/><path class="cls-4" d="M59.37,39.68h-.48V39h.5V37.89h.9V39h.84v.73h-.84v1.44a.65.65,0,0,0,.6.69h.3v.8a1.41,1.41,0,0,1-.29,0,1.35,1.35,0,0,1-1.52-1.16,1.93,1.93,0,0,1,0-.24Z"/><path class="cls-4" d="M63.82,40.27h.12v-.05c0-.49-.3-.65-.71-.65a2,2,0,0,0-1,.35l-.35-.66a2.51,2.51,0,0,1,1.45-.45A1.36,1.36,0,0,1,64.86,40a.94.94,0,0,1,0,.29v2.31H64V42h0a1.21,1.21,0,0,1-1.13.66,1.16,1.16,0,0,1-1.25-1.07v-.09C61.63,40.35,63.22,40.27,63.82,40.27ZM63.12,42A1,1,0,0,0,64,41v-.1h-.16c-.47,0-1.23.07-1.23.58a.49.49,0,0,0,.46.52Z"/><path class="cls-4" d="M65.76,37.44h.92V41.3c0,.41.13.51.37.51h.14v.8H66.9c-.51,0-1.14-.13-1.14-1.19Z"/><path class="cls-4" d="M69.78,37.44h1.75a2.58,2.58,0,1,1,.32,5.15H69.78Zm1.7,4.35a1.77,1.77,0,0,0,0-3.54h-.77v3.54Z"/><path class="cls-4" d="M76.75,38.81a1.94,1.94,0,1,1-2,1.93,1.94,1.94,0,0,1,2-1.93Zm0,3.08a1.15,1.15,0,1,0-1.1-1.2v.05a1.1,1.1,0,0,0,1,1.15Z"/><path class="cls-4" d="M81.26,38.81a1.84,1.84,0,0,1,1.42.55l-.4.63a1.44,1.44,0,0,0-1-.4,1.09,1.09,0,0,0-1.12,1.06v.08a1.12,1.12,0,0,0,1.08,1.16h.07a1.69,1.69,0,0,0,1.09-.47l.35.66a2,2,0,0,1-1.52.6A1.94,1.94,0,0,1,81,38.81a1.31,1.31,0,0,1,.28,0Z"/><path class="cls-4" d="M83.42,38.89h.92v2.19c0,.45.12.76.58.76a1.11,1.11,0,0,0,1-1.21V38.89h.92v3.7H86v-.68h0a1.43,1.43,0,0,1-1.28.77c-.79,0-1.29-.4-1.29-1.41Z"/><path class="cls-4" d="M87.89,38.89h.88v.68h0A1.41,1.41,0,0,1,90,38.81a1,1,0,0,1,1.08.76h0a1.44,1.44,0,0,1,1.26-.76c.77,0,1.21.43,1.21,1.4v2.38h-.92v-2.2c0-.42-.08-.74-.51-.74a1,1,0,0,0-.89.84,1.93,1.93,0,0,0,0,.48v1.62h-.92v-2.2c0-.4-.07-.74-.5-.74a1,1,0,0,0-.91.85,1.85,1.85,0,0,0,0,.47v1.62H88Z"/><path class="cls-4" d="M96.12,38.81a1.6,1.6,0,0,1,1.65,1.53,1.62,1.62,0,0,1,0,.22v.36H95.19a1.05,1.05,0,0,0,1.1,1h0a1.85,1.85,0,0,0,1.06-.4l.36.66a2.38,2.38,0,0,1-1.49.53,1.9,1.9,0,0,1-2-1.8v-.14a1.82,1.82,0,0,1,1.67-2Zm.71,1.48a.72.72,0,0,0-.65-.77H96.1a.86.86,0,0,0-.88.77Z"/><path class="cls-4" d="M98.52,38.89h.89v.43a1,1,0,0,1,0,.25h0a1.43,1.43,0,0,1,1.31-.76c.82,0,1.28.42,1.28,1.4v2.38h-.91V40.4c0-.45-.12-.75-.59-.75a1,1,0,0,0-1,.75,1.35,1.35,0,0,0-.06.49v1.7h-.93Z"/><path class="cls-4" d="M103.13,39.68h-.48V39h.5V37.89h.9V39h.84v.73h-.84v1.44a.65.65,0,0,0,.6.69H105v.8a1.31,1.31,0,0,1-.28,0,1.36,1.36,0,0,1-1.53-1.17,1.69,1.69,0,0,1,0-.23Z"/><path class="cls-4" d="M105.81,41.49a1.56,1.56,0,0,0,1,.4c.26,0,.48-.11.48-.33,0-.55-1.79-.48-1.79-1.67,0-.68.61-1.08,1.41-1.08a1.8,1.8,0,0,1,1.24.42l-.34.68a1.44,1.44,0,0,0-.91-.32c-.24,0-.47.1-.47.33,0,.52,1.8.46,1.8,1.65,0,.61-.54,1.11-1.41,1.11a2.08,2.08,0,0,1-1.44-.55Z"/><path class="cls-8" d="M124.58,62.05a1.62,1.62,0,0,0,1.09.49.77.77,0,0,0,.86-.67v0c0-.5-.47-.74-1-.74h-.33l-.19-.44.88-1c.11-.13.22-.25.34-.37h-1.85v-.75h2.92V59l-1.17,1.35a1.43,1.43,0,0,1,1.31,1.4,1.57,1.57,0,0,1-1.59,1.57h-.1a2.18,2.18,0,0,1-1.58-.64Z"/><path class="cls-8" d="M128.3,63.16l.26-.75a1.57,1.57,0,0,0,.67.16,1.38,1.38,0,0,0,1.28-1.29h0a1.25,1.25,0,0,1-.9.34,1.51,1.51,0,0,1-1.53-1.51V60a1.55,1.55,0,0,1,1.49-1.61h.09c1,0,1.85.83,1.85,2.27a2.43,2.43,0,0,1-2.16,2.67h0A2.29,2.29,0,0,1,128.3,63.16Zm2.28-2.77a1.13,1.13,0,0,0-.94-1.18.72.72,0,0,0-.72.74V60a.84.84,0,0,0,.79.89h.09C130.23,60.91,130.58,60.68,130.58,60.39Z"/><path class="cls-8" d="M132.14,62.42H133v.86h-.86Z"/><path class="cls-8" d="M133.91,63.16l.26-.75a1.57,1.57,0,0,0,.67.16,1.38,1.38,0,0,0,1.28-1.29h0a1.25,1.25,0,0,1-.9.34,1.51,1.51,0,0,1-1.53-1.51V60a1.55,1.55,0,0,1,1.49-1.61h.09c1,0,1.85.83,1.85,2.27A2.43,2.43,0,0,1,135,63.35h-.05A2.29,2.29,0,0,1,133.91,63.16Zm2.28-2.77a1.13,1.13,0,0,0-.94-1.18.72.72,0,0,0-.72.74V60a.84.84,0,0,0,.79.89h.09C135.84,60.91,136.19,60.68,136.19,60.39Z"/><path class="cls-8" d="M137.71,59.48a1.11,1.11,0,1,1,1,1A1.11,1.11,0,0,1,137.71,59.48Zm3.85-1h.79l-3.68,4.79h-.79Zm-2.3,1a.45.45,0,0,0-.89,0h0a.43.43,0,0,0,.42.44h0a.44.44,0,0,0,.45-.43Zm2.17,1.76a1.06,1.06,0,0,1,1,1.1,1.06,1.06,0,1,1-1-1.1Zm0,1.5a.45.45,0,1,0-.45-.45h0a.46.46,0,0,0,.45.44Z"/><path class="cls-8" d="M166.81,59.68a1.6,1.6,0,0,1,.29-.44h-2.37v-.75H168v.61l-2.1,4.18H165Z"/><path class="cls-8" d="M168.54,60.88c0-1.38.43-2.47,1.74-2.47S172,59.5,172,60.88s-.43,2.48-1.74,2.48S168.54,62.25,168.54,60.88Zm2.58,0c0-.93-.19-1.67-.84-1.67s-.84.74-.84,1.67.18,1.69.84,1.69S171.12,61.82,171.12,60.88Z"/><path class="cls-8" d="M172.76,62.42h.85v.86h-.85Z"/><path class="cls-8" d="M174.74,62.05a1.64,1.64,0,0,0,1.08.49.78.78,0,0,0,.87-.68v0c0-.5-.47-.74-1-.74h-.33l-.2-.44.88-1c.19-.22.34-.37.34-.37H174.5v-.75h2.93V59l-1.18,1.35a1.43,1.43,0,0,1,1.31,1.4A1.57,1.57,0,0,1,176,63.32h-.09a2.2,2.2,0,0,1-1.59-.64Z"/><path class="cls-8" d="M178.19,59.48a1.1,1.1,0,0,1,2.2,0,1.08,1.08,0,0,1-1.1,1.06h0a1.07,1.07,0,0,1-1.09-1Zm3.84-1h.79l-3.68,4.79h-.79Zm-2.29,1a.45.45,0,1,0-.9,0,.44.44,0,0,0,.44.44h0a.45.45,0,0,0,.46-.44Zm2.16,1.76a1.06,1.06,0,0,1,1,1.1,1.06,1.06,0,1,1-1-1.1Zm0,1.5a.44.44,0,0,0,.51-.38.45.45,0,0,0-.38-.51h-.13a.45.45,0,0,0,0,.89Z"/><path class="cls-4" d="M51.68,62.61h3.43V52.78h0a3.69,3.69,0,0,1-.68.89l-1.27,1.2-1.69-1.78,4-3.81h2.51V62.61h3.43v2.47H51.68Z"/><path class="cls-4" d="M62.13,59.25l6.81-10h3.4V58.6h2V61h-2v4.07H69.52V61H62.13Zm7.39-.62v-4.9a14.89,14.89,0,0,1,.11-1.64h0a10,10,0,0,1-.78,1.44l-3.65,5v0Z"/><path class="cls-4" d="M78.84,56.43a3.76,3.76,0,0,1-1.63-3.1c0-2.18,1.6-4.31,5.07-4.31,2.94,0,5.12,1.64,5.12,4.38a6.58,6.58,0,0,1-1.76,3.89,3.83,3.83,0,0,1,2,3.36c0,2.43-2,4.7-5.56,4.7s-5.65-2.14-5.65-4.85A5.36,5.36,0,0,1,78.84,56.43Zm2,1.18a3.62,3.62,0,0,0-1.47,2.66A2.6,2.6,0,0,0,82,62.81h.06a2.4,2.4,0,0,0,2.63-2.15s0-.09,0-.14c0-1.38-2-2-3.87-2.91Zm2.67-1.36a4.31,4.31,0,0,0,1.07-2.67c0-1.23-.94-2-2.36-2s-2.2.8-2.2,1.82c0,1.45,1.71,2.07,3.51,2.85Z"/><path class="cls-4" d="M204.75,94.37h3v.81h-2v1.46h1.7v.8h-1.7v2.08h-.94Z"/><path class="cls-4" d="M208.44,94.37h.92v.82h-.92Zm0,1.45h.92v3.7h-.92Z"/><path class="cls-4" d="M212,95.74a1.6,1.6,0,0,1,1.65,1.53,1.62,1.62,0,0,1,0,.22v.36h-2.55a1.05,1.05,0,0,0,1.1,1h0a1.85,1.85,0,0,0,1.06-.4l.36.66a2.38,2.38,0,0,1-1.49.53,1.9,1.9,0,0,1-2-1.8V97.7a1.82,1.82,0,0,1,1.67-2Zm.72,1.48a.72.72,0,0,0-.67-.77H212a.86.86,0,0,0-.88.77Z"/><path class="cls-4" d="M214.34,94.37h.92v3.86c0,.41.13.51.37.51h.14v.8h-.29c-.51,0-1.14-.13-1.14-1.19Z"/><path class="cls-4" d="M217.87,95.74a1.15,1.15,0,0,1,1.07.47h0V94.37h.92v5.15H219V99h0a1.28,1.28,0,0,1-1.16.63c-1,0-1.64-.79-1.64-1.94a1.72,1.72,0,0,1,1.5-1.92Zm.18,3.09c.48,0,.93-.35.93-1.17,0-.57-.31-1.13-.92-1.13s-.93.41-.93,1.14.37,1.16.92,1.16Z"/><path class="cls-4" d="M223.86,95.18h-1.69v-.81h4.31v.81h-1.69v4.34h-.93Z"/><path class="cls-4" d="M228.43,97.2h.13c0-.49-.31-.65-.71-.65a2,2,0,0,0-1,.35l-.34-.66a2.48,2.48,0,0,1,1.44-.45A1.36,1.36,0,0,1,229.48,97a.94.94,0,0,1,0,.29v2.31h-.85v-.3a1.22,1.22,0,0,1,0-.27h0a1.2,1.2,0,0,1-1.12.66,1.16,1.16,0,0,1-1.25-1.07V98.5C226.25,97.28,227.83,97.2,228.43,97.2Zm-.7,1.69a1,1,0,0,0,.84-1V97.8h-.16c-.48,0-1.24.07-1.24.58a.48.48,0,0,0,.46.51A.33.33,0,0,0,227.73,98.89Z"/><path class="cls-4" d="M231.83,100.26c.56,0,1-.24,1-.9V99h0a1.13,1.13,0,0,1-1,.5,1.7,1.7,0,0,1-1.67-1.73s0-.09,0-.14a1.65,1.65,0,0,1,1.45-1.83h.19a1.3,1.3,0,0,1,1.1.47h0v-.39h.86V99.3a1.72,1.72,0,0,1-1.71,1.75,1,1,0,0,1-.24,0,3.12,3.12,0,0,1-1.31-.32l.28-.7A2.33,2.33,0,0,0,231.83,100.26Zm1.06-2.68c0-.84-.41-1.06-.91-1.06a.91.91,0,0,0-.87,1,1,1,0,0,0,.93,1.12C232.48,98.67,232.89,98.42,232.89,97.58Z"/><path class="cls-4" d="M234.92,98.42a1.54,1.54,0,0,0,1,.4c.26,0,.49-.11.49-.33,0-.55-1.8-.48-1.8-1.67,0-.68.62-1.08,1.42-1.08a1.77,1.77,0,0,1,1.23.42l-.34.68a1.4,1.4,0,0,0-.9-.32c-.24,0-.47.1-.47.33,0,.52,1.79.46,1.79,1.65,0,.61-.53,1.11-1.41,1.11a2,2,0,0,1-1.43-.55Z"/><rect class="cls-8" x="233.98" y="110.43" width="99.7" height="4.73" rx="0.75" ry="0.75"/><rect class="cls-8" x="233.98" y="117.3" width="46.56" height="4.73" rx="0.75" ry="0.75"/><rect class="cls-8" x="233.98" y="124.17" width="23.28" height="4.73" rx="0.75" ry="0.75"/><rect class="cls-8" x="233.98" y="131.04" width="23.28" height="4.73" rx="0.75" ry="0.75"/><rect class="cls-6" x="204.1" y="111.57" width="14.7" height="2.44" rx="0.75" ry="0.75"/><rect class="cls-6" x="204.1" y="118.45" width="18.9" height="2.44" rx="0.75" ry="0.75"/><rect class="cls-6" x="204.1" y="125.32" width="20.14" height="2.44" rx="0.75" ry="0.75"/><rect class="cls-6" x="204.1" y="132.19" width="12.93" height="2.44" rx="0.75" ry="0.75"/><path class="cls-4" d="M207.06,36.26a2.6,2.6,0,0,1,2.66,2.54v.08a2.66,2.66,0,1,1-5.32,0A2.59,2.59,0,0,1,207,36.26Zm0,4.46a1.74,1.74,0,0,0,1.69-1.79v0a1.7,1.7,0,1,0-3.39-.26,1.13,1.13,0,0,0,0,.26A1.75,1.75,0,0,0,207,40.72Z"/><path class="cls-4" d="M213,36.26a2.72,2.72,0,0,1,1.9.7l-.45.7a2.28,2.28,0,0,0-1.41-.55,1.68,1.68,0,0,0-1.72,1.64v.13A1.74,1.74,0,0,0,213,40.72h0a2.21,2.21,0,0,0,1.49-.65l.5.67a2.78,2.78,0,0,1-2,.84,2.66,2.66,0,1,1,0-5.32Z"/><path class="cls-4" d="M215.86,36.34h1.66a2.44,2.44,0,0,1,1,.15,1.45,1.45,0,0,1,.84,1.41,1.48,1.48,0,0,1-.87,1.4h0a1.38,1.38,0,0,1,.17.25l1.06,1.92h-1l-1-1.92h-.9v1.92h-.93Zm1.77,2.42a.75.75,0,0,0,.82-.67V38c0-.5-.21-.8-.95-.8h-.71v1.61Z"/><path class="cls-4" d="M224.69,36.26a2.6,2.6,0,0,1,2.67,2.53v.1a2.76,2.76,0,0,1-.57,1.63l.58.52-.54.59-.57-.56a2.52,2.52,0,0,1-1.57.51A2.63,2.63,0,0,1,222,39v-.12a2.59,2.59,0,0,1,2.55-2.63Zm0,4.46a1.69,1.69,0,0,0,.9-.27l-.58-.54.54-.59.56.56a2,2,0,0,0,.28-1,1.7,1.7,0,1,0-3.39-.26,1.13,1.13,0,0,0,0,.26,1.74,1.74,0,0,0,1.64,1.84Z"/><path class="cls-4" d="M228.18,37.79h.92V40c0,.45.12.76.58.76a1.11,1.11,0,0,0,1-1.21V37.81h.92v3.7h-.88v-.68h0a1.43,1.43,0,0,1-1.28.77c-.79,0-1.29-.4-1.29-1.41Z"/><path class="cls-4" d="M234.53,39.17h.12v-.05c0-.49-.3-.65-.71-.65a2,2,0,0,0-1,.35l-.34-.66a2.51,2.51,0,0,1,1.45-.45,1.35,1.35,0,0,1,1.52,1.17,1,1,0,0,1,0,.3v2.31h-.84v-.57h0a1.22,1.22,0,0,1-1.13.66,1.16,1.16,0,0,1-1.25-1.07v-.09C232.34,39.25,233.93,39.17,234.53,39.17Zm-.71,1.69a1,1,0,0,0,.84-1V39.8h-.16c-.47,0-1.23.07-1.23.58a.48.48,0,0,0,.5.48Z"/><path class="cls-4" d="M236.47,36.34h.91V40.2c0,.41.14.51.38.51h.14v.8a1.41,1.41,0,0,1-.29,0c-.51,0-1.14-.13-1.14-1.19Z"/><path class="cls-4" d="M238.58,36.34h.91v.82h-.91Zm0,1.45h.92v3.7h-.92Z"/><path class="cls-4" d="M240.68,38.58h-.48v-.73h.5V36.79h.9v1.06h.84v.73h-.84V40a.65.65,0,0,0,.6.69.28.28,0,0,0,.13,0h.16v.8h-.28a1.35,1.35,0,0,1-1.52-1.16,1.93,1.93,0,0,1,0-.24Z"/><path class="cls-4" d="M243.05,42.08a.8.8,0,0,0,.42.16.7.7,0,0,0,.63-.48l.14-.33-1.56-3.64h1l.78,2.13a4.07,4.07,0,0,1,.13.5h0s.06-.29.12-.48l.73-2.15h1l-1.65,4.26a1.38,1.38,0,0,1-1.33,1,1.52,1.52,0,0,1-.77-.24Z"/><rect class="cls-6" x="204.1" y="48.05" width="6.66" height="2.44" rx="0.75" ry="0.75"/><rect class="cls-6" x="204.1" y="54.92" width="6.66" height="2.44" rx="0.75" ry="0.75"/><rect class="cls-6" x="204.1" y="61.8" width="6.66" height="2.44" rx="0.75" ry="0.75"/><rect class="cls-6" x="204.1" y="68.67" width="6.66" height="2.44" rx="0.75" ry="0.75"/><rect class="cls-6" x="262.5" y="48.05" width="5.3" height="2.44" rx="0.75" ry="0.75"/><rect class="cls-6" x="262.5" y="54.92" width="5.3" height="2.44" rx="0.75" ry="0.75"/><rect class="cls-6" x="262.5" y="61.8" width="5.3" height="2.44" rx="0.75" ry="0.75"/><rect class="cls-6" x="262.5" y="68.67" width="5.3" height="2.44" rx="0.75" ry="0.75"/><path class="cls-4" d="M281.32,40.17a2.08,2.08,0,0,0,1.28.54c.39,0,.75-.2.75-.62,0-.92-2.43-.76-2.43-2.34a1.58,1.58,0,0,1,1.66-1.49h.06a2.17,2.17,0,0,1,1.54.55l-.4.76a1.91,1.91,0,0,0-1.14-.45c-.44,0-.78.25-.78.62,0,.91,2.42.68,2.42,2.33a1.54,1.54,0,0,1-1.54,1.52h-.15a2.47,2.47,0,0,1-1.78-.71Z"/><path class="cls-4" d="M285.23,38.58h-.48v-.73h.5V36.79h.9v1.06H287v.73h-.85V40a.64.64,0,0,0,.6.69.33.33,0,0,0,.14,0h.16v.8h-.28a1.36,1.36,0,0,1-1.53-1.17,1.69,1.69,0,0,1,0-.23Z"/><path class="cls-4" d="M289.68,39.17h.13v-.05c0-.49-.31-.65-.71-.65a2,2,0,0,0-1,.35l-.34-.66a2.48,2.48,0,0,1,1.44-.45,1.36,1.36,0,0,1,1.53,1.18.94.94,0,0,1,0,.29v2.31h-.85v-.3a1.22,1.22,0,0,1,0-.27h0a1.2,1.2,0,0,1-1.12.66,1.16,1.16,0,0,1-1.25-1.07v-.09C287.5,39.25,289.08,39.17,289.68,39.17Zm-.7,1.69a1,1,0,0,0,.84-1V39.8h-.16c-.48,0-1.24.07-1.24.58a.49.49,0,0,0,.49.49H289Z"/><path class="cls-4" d="M291.82,38.58h-.48v-.73h.5V36.79h.9v1.06h.84v.73h-.84V40a.65.65,0,0,0,.6.69.28.28,0,0,0,.13,0h.17v.8h-.29a1.35,1.35,0,0,1-1.52-1.16,1.93,1.93,0,0,1,0-.24Z"/><path class="cls-4" d="M294.34,37.79h.92V40c0,.45.12.76.57.76a1.12,1.12,0,0,0,1-1.23V37.81h.92v3.7h-.88v-.68h0a1.45,1.45,0,0,1-1.29.77c-.79,0-1.28-.4-1.28-1.41Z"/><path class="cls-4" d="M298.92,40.39a1.54,1.54,0,0,0,1,.4c.26,0,.49-.11.49-.33,0-.55-1.8-.48-1.8-1.67,0-.68.62-1.08,1.41-1.08a1.8,1.8,0,0,1,1.24.42l-.34.68a1.4,1.4,0,0,0-.9-.32c-.24,0-.48.1-.48.33,0,.52,1.8.46,1.8,1.65,0,.61-.53,1.11-1.41,1.11a2.08,2.08,0,0,1-1.44-.55Z"/><rect class="cls-6" x="280.15" y="48.05" width="17.47" height="2.44" rx="0.75" ry="0.75"/><rect class="cls-6" x="280.15" y="54.92" width="20.14" height="2.44" rx="0.75" ry="0.75"/><rect class="cls-6" x="280.15" y="61.8" width="20.14" height="2.44" rx="0.75" ry="0.75"/><rect class="cls-6" x="280.15" y="68.67" width="11.57" height="2.44" rx="0.75" ry="0.75"/><rect class="cls-6" x="337.2" y="48.05" width="8.18" height="2.44" rx="0.75" ry="0.75"/><rect class="cls-6" x="340.08" y="54.92" width="5.3" height="2.44" rx="0.75" ry="0.75"/><rect class="cls-6" x="340.08" y="61.8" width="5.3" height="2.44" rx="0.75" ry="0.75"/><rect class="cls-6" x="340.08" y="68.67" width="5.3" height="2.44" rx="0.75" ry="0.75"/><path class="cls-4" d="M125,39.43h.83a1.2,1.2,0,0,1,.53.08.82.82,0,0,1,.3,1.12.8.8,0,0,1-.46.37h0a.41.41,0,0,1,.07.11l.61,1.13h-.31l-.64-1.18h-.71v1.18H125Zm.94,1.38a.53.53,0,0,0,.56-.5v-.07a.54.54,0,0,0-.26-.49.68.68,0,0,0-.4-.07h-.57v1.13Z"/><path class="cls-4" d="M128.23,40.18a.84.84,0,0,1,.84.84v.23h-1.54a.75.75,0,0,0,.71.79h.07a.92.92,0,0,0,.61-.24l.08.2a1.14,1.14,0,0,1-.74.28,1.06,1.06,0,0,1-.11-2.1Zm.56.85a.57.57,0,0,0-.52-.62h-.05a.69.69,0,0,0-.69.62Z"/><path class="cls-4" d="M129.32,40.23h.28l.56,1.47a2.17,2.17,0,0,1,.07.24h0a2.17,2.17,0,0,1,.07-.24l.56-1.47h.28l-.77,2h-.29Z"/><path class="cls-4" d="M131.52,39.43h.29v.34h-.29Zm0,.8h.27v2h-.27Z"/><path class="cls-4" d="M133.31,40.18a.84.84,0,0,1,.84.84v.23H132.6a.75.75,0,0,0,.71.79h.07a.92.92,0,0,0,.61-.24l.12.21a1.14,1.14,0,0,1-.74.28,1,1,0,0,1-1.05-.95v-.05a1,1,0,0,1,.88-1.1Zm.57.85a.58.58,0,0,0-.54-.62h0a.69.69,0,0,0-.69.62Z"/><path class="cls-4" d="M134.41,40.23h.29l.49,1.5a.59.59,0,0,0,.06.21h0a.83.83,0,0,1,.06-.21l.49-1.49h.27l.49,1.49a.83.83,0,0,1,.06.21h0l.06-.21.49-1.5h.29l-.68,2h-.3L136,40.81a.79.79,0,0,1-.06-.22h0l-.06.22-.49,1.43h-.3Z"/><path class="cls-4" d="M138.73,40.18a.84.84,0,0,1,.84.84v.23H138a.75.75,0,0,0,.71.79h.06a1,1,0,0,0,.62-.24l.12.21a1.14,1.14,0,0,1-.74.28,1,1,0,0,1-1-1,1,1,0,0,1,.88-1.1Zm.56.85a.57.57,0,0,0-.52-.62h-.05A.67.67,0,0,0,138,41Z"/><path class="cls-4" d="M140.86,40.18a.7.7,0,0,1,.65.38h0V39.41h.28v2.81h-.27v-.37h0a.73.73,0,0,1-.69.41c-.54,0-.87-.43-.87-1.06a.93.93,0,0,1,.84-1Zm0,1.86c.34,0,.65-.24.65-.81,0-.4-.21-.81-.64-.81s-.64.3-.64.81.27.77.64.77Z"/><path class="cls-4" d="M167.52,41.34h-1.13l-.32.9h-.29l1-2.81h.3l1,2.81h-.29ZM167,39.72s-.06.23-.11.36l-.38,1h1l-.37-1a1.26,1.26,0,0,0-.1-.36Z"/><path class="cls-4" d="M168.51,41.8a.89.89,0,0,0,.6.24c.21,0,.4-.1.4-.32,0-.43-1.08-.33-1.08-1a.59.59,0,0,1,.63-.56h.05a.8.8,0,0,1,.62.22l-.12.21a.66.66,0,0,0-.5-.19c-.21,0-.4.09-.4.32,0,.44,1.08.32,1.08,1a.6.6,0,0,1-.64.57h-.05a1,1,0,0,1-.74-.29Z"/><path class="cls-4" d="M170.28,41.8a.89.89,0,0,0,.6.24c.21,0,.4-.1.4-.32,0-.43-1.08-.33-1.08-1,0-.36.32-.56.69-.56a.85.85,0,0,1,.61.22l-.12.21a.66.66,0,0,0-.5-.19c-.21,0-.4.09-.4.32,0,.44,1.08.32,1.08,1a.6.6,0,0,1-.64.57h0a1,1,0,0,1-.74-.29Z"/><path class="cls-4" d="M172.06,39.43h.28v.34h-.28Zm0,.8h.27v2h-.27Z"/><path class="cls-4" d="M173.69,42.84a.63.63,0,0,0,.7-.53v-.45h0a.66.66,0,0,1-.63.35.93.93,0,0,1-.9-1v0c0-.61.33-1,.87-1a.66.66,0,0,1,.67.34h0v-.29h.27v2a.87.87,0,0,1-.84.9h-.16A1.49,1.49,0,0,1,173,43l.11-.22A1.23,1.23,0,0,0,173.69,42.84Zm.71-1.64c0-.59-.28-.77-.64-.77s-.62.28-.62.76.26.79.66.79.6-.19.6-.78Z"/><path class="cls-4" d="M175.32,40.23h.27v.46h0a.84.84,0,0,1,.8-.51c.5,0,.67.28.67.78v1.28h-.27V41c0-.31,0-.59-.43-.59a.76.76,0,0,0-.73.56.66.66,0,0,0,0,.28v1h-.27Z"/><path class="cls-4" d="M178.54,40.18a.84.84,0,0,1,.84.84v.23h-1.55a.76.76,0,0,0,.73.79h.05a.92.92,0,0,0,.61-.24l.13.21a1.14,1.14,0,0,1-.75.28,1.06,1.06,0,0,1-.12-2.11Zm.57.85a.57.57,0,0,0-.52-.62h-.05a.67.67,0,0,0-.69.62Z"/><path class="cls-4" d="M180.68,40.18a.71.71,0,0,1,.65.38h0V39.41h.27v2.81h-.26v-.37h0a.73.73,0,0,1-.69.41c-.54,0-.88-.43-.88-1.06a1,1,0,0,1,.86-1Zm0,1.86c.34,0,.65-.24.65-.81,0-.4-.21-.81-.64-.81s-.65.3-.65.81.27.77.65.77Z"/><g class="cls-9"><path class="cls-4" d="M205.82,151.34h-1.69v-.81h4.31v.81h-1.69v4.34h-.93Z"/></g><g class="cls-9"><path class="cls-4" d="M210,151.9a1.59,1.59,0,0,1,1.64,1.75c0,.11,0,.36,0,.36h-2.55a1.05,1.05,0,0,0,1.11,1,1.83,1.83,0,0,0,1.06-.4l.36.66a2.33,2.33,0,0,1-1.49.53,1.9,1.9,0,0,1-2-1.94A1.82,1.82,0,0,1,210,151.9Zm.71,1.48a.71.71,0,0,0-.73-.77.85.85,0,0,0-.88.77Z"/><path class="cls-4" d="M212.41,152h.89v.64a1.77,1.77,0,0,1,0,.26h0a1.27,1.27,0,0,1,1.17-.95.79.79,0,0,1,.17,0v.9h-.22a1.05,1.05,0,0,0-1,.77,2.31,2.31,0,0,0-.08.61v1.46h-.92Z"/><path class="cls-4" d="M215.26,152h.89v.43a1.55,1.55,0,0,1,0,.25h0a1.39,1.39,0,0,1,1.2-.76,1,1,0,0,1,1.08.76h0a1.47,1.47,0,0,1,1.27-.76c.76,0,1.21.43,1.21,1.4v2.38H220v-2.2c0-.42-.08-.74-.51-.74a1,1,0,0,0-.89.84,1.77,1.77,0,0,0,0,.48v1.62h-.92v-2.2c0-.4-.06-.74-.5-.74a1,1,0,0,0-.9.84,1.82,1.82,0,0,0,0,.48v1.62h-.92Z"/><path class="cls-4" d="M221.88,150.53h.91v.82h-.91Zm0,1.45h.92v3.7h-.92Z"/><path class="cls-4" d="M223.82,152h.88v.43c0,.14,0,.25,0,.25h0a1.44,1.44,0,0,1,1.31-.76c.82,0,1.29.42,1.29,1.4v2.38h-.92v-2.19c0-.45-.11-.75-.58-.75a1,1,0,0,0-1,.75,1.57,1.57,0,0,0-.06.49v1.7h-.92Z"/></g><g class="cls-9"><path class="cls-4" d="M230.14,153.36h.13v-.05c0-.49-.31-.65-.71-.65a2,2,0,0,0-1,.35l-.34-.66a2.49,2.49,0,0,1,1.44-.45,1.37,1.37,0,0,1,1.54,1.47v2.31h-.85v-.3a1.83,1.83,0,0,1,0-.27h0a1.19,1.19,0,0,1-1.12.66,1.16,1.16,0,0,1-1.25-1.16C228,153.44,229.54,153.36,230.14,153.36Zm-.7,1.69a1,1,0,0,0,.84-1V154h-.16c-.48,0-1.24.07-1.24.58A.49.49,0,0,0,229.44,155.05Z"/></g><g class="cls-9"><path class="cls-4" d="M232.28,152.77h-.48V152h.5V151h.9V152H234v.73h-.84v1.44a.65.65,0,0,0,.73.69h.17v.8a1.21,1.21,0,0,1-.29,0,1.35,1.35,0,0,1-1.53-1.4Z"/><path class="cls-4" d="M234.85,150.53h.91v.82h-.91Zm0,1.45h.92v3.7h-.92Z"/><path class="cls-4" d="M238.54,151.9a1.94,1.94,0,1,1-2,1.93A1.95,1.95,0,0,1,238.54,151.9Zm0,3.08a1.15,1.15,0,1,0-1.1-1.15A1.09,1.09,0,0,0,238.55,155Z"/><path class="cls-4" d="M241.32,152h.88v.43c0,.14,0,.25,0,.25h0a1.44,1.44,0,0,1,1.31-.76c.82,0,1.29.42,1.29,1.4v2.38h-.92v-2.19c0-.45-.11-.75-.58-.75a1,1,0,0,0-1,.75,1.57,1.57,0,0,0-.06.49v1.7h-.92Z"/><path class="cls-4" d="M247.67,150.53h1.66a2.42,2.42,0,0,1,1,.15,1.45,1.45,0,0,1,.84,1.4,1.49,1.49,0,0,1-.87,1.41h0a1.64,1.64,0,0,1,.17.26l1.06,1.92h-1l-1-1.92h-.9v1.92h-.93Zm1.77,2.42a.75.75,0,0,0,.82-.81c0-.5-.21-.8-.95-.8h-.71V153Z"/><path class="cls-4" d="M252.29,150.53h.92v.82h-.92Zm0,1.45h.92v3.7h-.92Z"/><path class="cls-4" d="M255.63,156.42c.56,0,1-.24,1-.9v-.22a1.31,1.31,0,0,1,0-.19h0a1.13,1.13,0,0,1-1,.5,1.7,1.7,0,0,1-1.66-1.87,1.65,1.65,0,0,1,1.64-1.84,1.26,1.26,0,0,1,1.1.47h0a.58.58,0,0,1,0-.1V152h.86v3.48a1.73,1.73,0,0,1-1.95,1.74,3,3,0,0,1-1.31-.32l.28-.7A2.45,2.45,0,0,0,255.63,156.42Zm1.06-2.68c0-.84-.41-1.06-.91-1.06s-.87.4-.87,1,.33,1.12.93,1.12C256.28,154.83,256.69,154.58,256.69,153.74Z"/><path class="cls-4" d="M258.61,150.53h.92v1.79a2.26,2.26,0,0,1,0,.31h0a1.41,1.41,0,0,1,1.27-.73c.82,0,1.29.42,1.29,1.4v2.38h-.92v-2.19c0-.45-.11-.75-.58-.75a1,1,0,0,0-1,.76,1.51,1.51,0,0,0-.06.48v1.7h-.92Z"/><path class="cls-4" d="M263.21,152.77h-.48V152h.5V151h.9V152H265v.73h-.84v1.44a.65.65,0,0,0,.74.69H265v.8a1.17,1.17,0,0,1-.28,0,1.36,1.36,0,0,1-1.54-1.4Z"/></g><rect class="cls-7" x="233.98" y="162.67" width="100" height="4.73" rx="0.75" ry="0.75"/><rect class="cls-8" x="233.98" y="162.67" width="25.71" height="4.73" rx="0.75" ry="0.75"/><rect class="cls-6" x="204.1" y="163.82" width="18.8" height="2.44" rx="0.75" ry="0.75"/><path class="cls-4" d="M204.75,187.72h1.76a2.58,2.58,0,1,1,.32,5.15h-2.08Zm1.71,4.35a1.77,1.77,0,0,0,0-3.54h-.77v3.54Z"/><path class="cls-4" d="M211.72,189.09a1.94,1.94,0,1,1-2,1.93,1.94,1.94,0,0,1,2-1.93Zm0,3.08a1.15,1.15,0,1,0-1.11-1.19v0a1.09,1.09,0,0,0,1,1.15h.08Z"/><path class="cls-4" d="M216.24,189.09a1.93,1.93,0,0,1,1.42.55l-.41.63a1.44,1.44,0,0,0-1-.4,1.1,1.1,0,0,0-1.13,1.07V191a1.12,1.12,0,0,0,1.08,1.16h.08a1.69,1.69,0,0,0,1.08-.47l.36.66a2.11,2.11,0,0,1-1.52.6,1.94,1.94,0,0,1-.28-3.87h.32Z"/><path class="cls-4" d="M218.4,189.17h.92v2.19c0,.45.11.76.57.76a1.12,1.12,0,0,0,1-1.23v-1.72h.92v3.7H221v-.42a1.13,1.13,0,0,1,0-.26h0a1.43,1.43,0,0,1-1.28.77c-.79,0-1.28-.4-1.28-1.41Z"/><path class="cls-4" d="M222.86,189.17h.89v.43a1,1,0,0,1,0,.25h0a1.39,1.39,0,0,1,1.2-.76,1,1,0,0,1,1.08.76h0a1.49,1.49,0,0,1,1.27-.76c.76,0,1.21.43,1.21,1.4v2.38h-.92v-2.2c0-.42-.08-.74-.51-.74a1,1,0,0,0-.89.84,1.93,1.93,0,0,0,0,.48v1.62h-.92v-2.2c0-.4-.06-.74-.5-.74a1,1,0,0,0-.9.85,1.48,1.48,0,0,0-.05.47v1.62h-.92Z"/><path class="cls-4" d="M231.1,189.09a1.61,1.61,0,0,1,1.65,1.55,1.34,1.34,0,0,1,0,.2v.36h-2.55a1.05,1.05,0,0,0,1.1,1h0a1.9,1.9,0,0,0,1.07-.4l.35.66a2.28,2.28,0,0,1-1.48.53,1.9,1.9,0,0,1-2-1.8v-.14a1.82,1.82,0,0,1,1.67-2Zm.71,1.48a.72.72,0,0,0-.67-.77h-.06a.87.87,0,0,0-.89.77Z"/><path class="cls-4" d="M233.5,189.17h.88v.68h0a1.43,1.43,0,0,1,1.31-.76c.82,0,1.29.42,1.29,1.4v2.38h-.92v-2.19c0-.45-.11-.75-.58-.75a1,1,0,0,0-1,.75,1.35,1.35,0,0,0-.06.49v1.7h-.92Z"/><path class="cls-4" d="M238.1,190h-.48v-.73h.5v-1.06h.9v1.06h.84V190H239v1.44a.65.65,0,0,0,.6.69h.3v.8h-.28a1.36,1.36,0,0,1-1.53-1.17,1.69,1.69,0,0,1,0-.23Z"/><path class="cls-4" d="M240.78,191.77a1.56,1.56,0,0,0,1,.4c.26,0,.49-.11.49-.33,0-.55-1.8-.48-1.8-1.67,0-.68.62-1.08,1.41-1.08a1.8,1.8,0,0,1,1.24.42l-.34.68a1.4,1.4,0,0,0-.9-.32c-.24,0-.47.1-.47.33,0,.52,1.79.46,1.79,1.65,0,.61-.53,1.11-1.41,1.11a2.08,2.08,0,0,1-1.44-.55Z"/><path class="cls-4" d="M246.93,188.53h-1.69v-.81h4.31v.81h-1.69v4.34h-.93Z"/><path class="cls-4" d="M251.5,190.55h.12v-.05c0-.49-.31-.65-.71-.65a2,2,0,0,0-1,.35l-.35-.66a2.59,2.59,0,0,1,1.45-.45,1.36,1.36,0,0,1,1.53,1.18.94.94,0,0,1,0,.29v2.31h-.85v-.3a1.22,1.22,0,0,1,0-.27h0a1.2,1.2,0,0,1-1.12.66,1.16,1.16,0,0,1-1.25-1.07v-.09C249.31,190.63,250.89,190.55,251.5,190.55Zm-.71,1.69a.94.94,0,0,0,.83-1v-.09h-.15c-.48,0-1.24.07-1.24.58a.49.49,0,0,0,.49.51Z"/><path class="cls-4" d="M254.89,193.61c.56,0,1-.24,1-.9v-.41h0a1.13,1.13,0,0,1-1,.5,1.7,1.7,0,0,1-1.67-1.73s0-.09,0-.14a1.65,1.65,0,0,1,1.45-1.83h.19a1.24,1.24,0,0,1,1.09.47h0v-.39h.86v3.48a1.72,1.72,0,0,1-1.7,1.76,1.51,1.51,0,0,1-.3,0,3.12,3.12,0,0,1-1.31-.32l.28-.7A2.45,2.45,0,0,0,254.89,193.61Zm1.06-2.68c0-.84-.41-1.06-.91-1.06a.91.91,0,0,0-.87,1,1,1,0,0,0,.93,1.12c.44,0,.9-.22.9-1.06Z"/><path class="cls-4" d="M259.27,193.61c.56,0,1-.24,1-.9v-.41h0a1.13,1.13,0,0,1-1,.5,1.7,1.7,0,0,1-1.67-1.73s0-.09,0-.14a1.65,1.65,0,0,1,1.45-1.83h.19a1.24,1.24,0,0,1,1.09.47h0v-.39h.86v3.48a1.72,1.72,0,0,1-1.7,1.76,1.51,1.51,0,0,1-.3,0,2.85,2.85,0,0,1-1.31-.32l.28-.7A2.45,2.45,0,0,0,259.27,193.61Zm1.06-2.68c0-.84-.41-1.06-.91-1.06a.91.91,0,0,0-.87,1,1,1,0,0,0,.93,1.12c.44,0,.85-.22.85-1.06Z"/><path class="cls-4" d="M263.86,189.09a1.6,1.6,0,0,1,1.65,1.53,1.62,1.62,0,0,1,0,.22v.36H263a1.05,1.05,0,0,0,1.1,1h0a1.85,1.85,0,0,0,1.06-.4l.36.66A2.31,2.31,0,0,1,264,193a1.9,1.9,0,0,1-2-1.8v-.14a1.82,1.82,0,0,1,1.66-2Zm.71,1.48a.72.72,0,0,0-.65-.77h-.08a.85.85,0,0,0-.88.77Z"/><path class="cls-4" d="M267.68,189.09a1.15,1.15,0,0,1,1.07.47h0v-1.84h.92v5.15h-.87v-.54h0a1.28,1.28,0,0,1-1.16.63c-1,0-1.64-.79-1.64-1.94a1.72,1.72,0,0,1,1.5-1.92Zm.18,3.09c.48,0,.93-.35.93-1.17,0-.57-.31-1.13-.92-1.13s-.93.41-.93,1.14S267.31,192.18,267.86,192.18Z"/><path class="cls-4" d="M272.6,187.72h3v.81h-2V190h1.71v.8H273.6v2.08h-.93Z"/><path class="cls-4" d="M280.82,189.17h.89v.64a1.13,1.13,0,0,1,0,.26h0a1.26,1.26,0,0,1,1.17-.95h.17v.9h-.22a1,1,0,0,0-1,.77,2.09,2.09,0,0,0-.08.61v1.46h-.92Z"/><path class="cls-4" d="M285.58,187.72h1.66a2.44,2.44,0,0,1,1,.15,1.45,1.45,0,0,1,.84,1.41,1.48,1.48,0,0,1-.87,1.4h0a1.38,1.38,0,0,1,.17.25l1.06,1.92h-1l-1-1.92h-.9v1.92h-.94Zm1.78,2.42a.75.75,0,0,0,.81-.68v-.13c0-.5-.21-.8-.94-.8h-.71v1.61Z"/><path class="cls-4" d="M291.78,189.09a1.6,1.6,0,0,1,1.65,1.53,1.62,1.62,0,0,1,0,.22v.36h-2.55a1.05,1.05,0,0,0,1.1,1h0a1.85,1.85,0,0,0,1.06-.4l.36.66a2.38,2.38,0,0,1-1.49.53,1.9,1.9,0,0,1-2-1.8v-.14a1.82,1.82,0,0,1,1.67-2Zm.71,1.48a.72.72,0,0,0-.65-.77h-.08a.85.85,0,0,0-.88.77Z"/><path class="cls-4" d="M293.68,189.17h1l.77,2.29c.07.22.12.56.13.56h0a5.44,5.44,0,0,1,.13-.56l.77-2.29h1l-1.33,3.7H295Z"/><path class="cls-4" d="M298,187.72h.91v.82H298Zm0,1.45h.92v3.7H298Z"/><path class="cls-4" d="M301.5,189.09a1.61,1.61,0,0,1,1.65,1.55,1.34,1.34,0,0,1,0,.2v.36h-2.55a1.05,1.05,0,0,0,1.1,1h0a1.9,1.9,0,0,0,1.07-.4l.35.66a2.28,2.28,0,0,1-1.48.53,1.9,1.9,0,0,1-2-1.8v-.14a1.82,1.82,0,0,1,1.67-2Zm.71,1.48a.72.72,0,0,0-.67-.77h-.06a.87.87,0,0,0-.89.77Z"/><path class="cls-4" d="M303.49,189.17h1l.65,2.43c0,.13.05.26.07.39h0a1.17,1.17,0,0,1,.08-.39l.68-2.42h.82l.68,2.42a2.7,2.7,0,0,1,.08.39h0a1.17,1.17,0,0,1,.08-.39l.64-2.43h1l-1.12,3.7h-1l-.62-2.11a2.59,2.59,0,0,1-.09-.4h0a1.17,1.17,0,0,1-.08.4l-.63,2.11h-1Z"/><rect class="cls-7" x="233.98" y="202.24" width="100" height="4.73" rx="0.75" ry="0.75"/><rect class="cls-7" x="233.98" y="209.11" width="93.06" height="4.73" rx="0.75" ry="0.75"/><rect class="cls-8" x="233.98" y="202.24" width="39.05" height="4.73" rx="0.75" ry="0.75"/><rect class="cls-8" x="233.98" y="209.11" width="22.88" height="4.73" rx="0.75" ry="0.75"/><rect class="cls-7" x="233.98" y="215.98" width="62.71" height="4.73" rx="0.75" ry="0.75"/><rect class="cls-7" x="233.98" y="222.85" width="50" height="4.73" rx="0.75" ry="0.75"/><rect class="cls-8" x="233.98" y="222.85" width="16.39" height="4.73" rx="0.75" ry="0.75"/><rect class="cls-8" x="233.98" y="229.72" width="42.27" height="4.73" rx="0.75" ry="0.75"/><rect class="cls-6" x="204.1" y="203.38" width="14.47" height="2.44" rx="0.75" ry="0.75"/><rect class="cls-6" x="204.1" y="210.26" width="13.72" height="2.44" rx="0.75" ry="0.75"/><rect class="cls-6" x="204.1" y="217.13" width="25.89" height="2.44" rx="0.75" ry="0.75"/><rect class="cls-6" x="204.1" y="224" width="20.15" height="2.44" rx="0.75" ry="0.75"/><rect class="cls-6" x="204.1" y="230.87" width="22.68" height="2.44" rx="0.75" ry="0.75"/><path class="cls-7" d="M173.27,48A13.13,13.13,0,1,0,185.9,61.61h0v-.49A12.88,12.88,0,0,0,173.27,48Zm0,24.89a11.77,11.77,0,1,1,11.32-12.2h0v.43a11.55,11.55,0,0,1-11.29,11.8h0Z"/><path class="cls-8" d="M184.6,61.12a11.55,11.55,0,0,1-11.29,11.8h0a11.39,11.39,0,0,1-10.81-8.25l-3.79,1.25a15.42,15.42,0,0,0,14.64,11.17c8.47,0,15.34-7.14,15.34-15.94s-6.87-15.93-15.34-15.93v4.17A11.55,11.55,0,0,1,184.6,61.12Z"/><path class="cls-7" d="M133.22,48a13.13,13.13,0,1,0,12.63,13.61h0v-.49A12.88,12.88,0,0,0,133.22,48Zm0,24.89a11.77,11.77,0,1,1,11.32-12.2h0v.43a11.56,11.56,0,0,1-11.32,11.8h0Z"/><path class="cls-8" d="M144.55,61.12a11.92,11.92,0,0,1-4.64,9.49L142.28,74a16.08,16.08,0,0,0,6.28-12.84c0-8.8-6.86-15.93-15.34-15.93V49.4A11.54,11.54,0,0,1,144.55,61.12Z"/><rect class="cls-10" x="329.84" y="4.6" width="11.73" height="4.73" rx="0.75" ry="0.75"/><rect class="cls-10" x="310.11" y="4.6" width="16.53" height="4.73" rx="0.75" ry="0.75"/><rect class="cls-10" x="292.06" y="4.6" width="14.13" height="4.73" rx="0.75" ry="0.75"/><rect class="cls-10" x="344.91" y="4.6" width="4.56" height="4.73" rx="0.75" ry="0.75"/><rect class="cls-10" x="65.84" y="4.6" width="16.53" height="4.73" rx="0.75" ry="0.75"/><rect class="cls-10" x="47.79" y="4.6" width="14.13" height="4.73" rx="0.75" ry="0.75"/><rect class="cls-10" x="86.67" y="4.6" width="9.68" height="4.73" rx="0.75" ry="0.75"/><rect class="cls-10" x="100.03" y="4.6" width="9.68" height="4.73" rx="0.75" ry="0.75"/><path class="cls-11" d="M12.37,18.18h.85a1.24,1.24,0,0,1,0,2.48h-.85Zm.83,2.09a.85.85,0,1,0,0-1.7h-.37v1.7Z"/><path class="cls-11" d="M16.18,20h-.87l-.21.64h-.47l.88-2.48H16l.87,2.48h-.46Zm-.44-1.41c0,.13-.06.26-.1.38l-.22.67h.65L15.85,19c0-.12-.07-.25-.1-.38Z"/><path class="cls-11" d="M17.23,20a1,1,0,0,0,.62.27c.19,0,.36-.1.36-.3,0-.45-1.17-.37-1.17-1.13a.74.74,0,0,1,.78-.72h.05a1.05,1.05,0,0,1,.74.26l-.2.37a.9.9,0,0,0-.54-.22.34.34,0,0,0-.38.3h0c0,.44,1.17.33,1.17,1.13a.74.74,0,0,1-.76.72h-.06a1.18,1.18,0,0,1-.85-.34Z"/><path class="cls-11" d="M19.11,18.18h.45v1.05H20.7V18.18h.45v2.48H20.7v-1H19.56v1h-.45Z"/><path class="cls-11" d="M21.78,18.18h.89c.45,0,.77.23.77.64a.6.6,0,0,1-.3.53h0a.58.58,0,0,1,.4.58c0,.5-.4.72-.86.72h-.9Zm.89,1a.31.31,0,1,0,0-.62h-.43v.62Zm0,1.08a.35.35,0,0,0,.41-.3.35.35,0,0,0-.29-.41.24.24,0,0,0-.12,0h-.49v.71Z"/><path class="cls-11" d="M25.15,18.14a1.25,1.25,0,0,1,1.28,1.22v0a1.29,1.29,0,0,1-2.57.23.89.89,0,0,1,0-.23,1.25,1.25,0,0,1,1.26-1.26Zm0,2.15a.83.83,0,0,0,.85-.83V19.4a.82.82,0,1,0-1.63-.18.54.54,0,0,0,0,.18A.84.84,0,0,0,25.15,20.29Z"/><path class="cls-11" d="M28.11,20h-.87l-.21.64h-.47l.88-2.48h.47l.87,2.48h-.46Zm-.44-1.41c0,.13-.06.26-.1.38l-.22.67H28L27.78,19c0-.12-.07-.25-.1-.38Z"/><path class="cls-11" d="M29.1,18.18h.8a1.07,1.07,0,0,1,.5.07.7.7,0,0,1,.41.68.71.71,0,0,1-.42.67h0l.08.12.51.93h-.5L30,19.73h-.44v.93H29.1Zm.9,1.16a.36.36,0,0,0,.39-.33V19c0-.24-.1-.38-.45-.38h-.35v.77Z"/><path class="cls-11" d="M31.41,18.18h.84a1.24,1.24,0,0,1,0,2.48h-.84Zm.82,2.09a.85.85,0,1,0,0-1.7h-.37v1.7Z"/><rect class="cls-11" x="4.47" y="17.48" width="3.95" height="3.95" rx="0.75" ry="0.75"/><rect class="cls-12" x="11.99" y="25.82" width="21.51" height="3.95" rx="0.75" ry="0.75"/><rect class="cls-12" x="13.57" y="34.48" width="20.77" height="3.95" rx="0.75" ry="0.75"/><rect class="cls-12" x="13.57" y="43.15" width="19.18" height="3.95" rx="0.75" ry="0.75"/><rect class="cls-12" x="13.57" y="51.93" width="22.84" height="3.95" rx="0.75" ry="0.75"/><rect class="cls-12" x="13.57" y="60.71" width="9.59" height="3.95" rx="0.75" ry="0.75"/><rect class="cls-12" x="11.99" y="69.49" width="22.36" height="3.95" rx="0.75" ry="0.75"/><rect class="cls-12" x="11.99" y="78.27" width="19.19" height="3.95" rx="0.75" ry="0.75"/><rect class="cls-12" x="11.99" y="87.05" width="20.77" height="3.95" rx="0.75" ry="0.75"/><rect class="cls-12" x="4.47" y="25.82" width="3.95" height="3.95" rx="0.75" ry="0.75"/><rect class="cls-12" x="4.47" y="69.49" width="3.95" height="3.95" rx="0.75" ry="0.75"/><rect class="cls-12" x="4.47" y="78.27" width="3.95" height="3.95" rx="0.75" ry="0.75"/><rect class="cls-12" x="4.47" y="87.05" width="3.95" height="3.95" rx="0.75" ry="0.75"/><path class="cls-4" d="M278,189.09a1.94,1.94,0,1,1-2,1.94A2,2,0,0,1,278,189.09Zm0,3.09a1.15,1.15,0,1,0-1.1-1.15A1.09,1.09,0,0,0,278,192.18Z"/></svg>