<?xml version="1.0" encoding="utf-8"?>
<!-- Generator: Adobe Illustrator 25.0.1, SVG Export Plug-In . SVG Version: 6.00 Build 0)  -->
<svg version="1.1" id="Layer_1" xmlns="http://www.w3.org/2000/svg" xmlns:xlink="http://www.w3.org/1999/xlink" x="0px" y="0px"
	 viewBox="0 0 50 50" style="enable-background:new 0 0 50 50;" xml:space="preserve">
<style type="text/css">
	.st0{fill:#A4DBE8;}
	.st1{fill:#FFFFFF;}
	.st2{fill:#00313C;}
</style>
<g>
	<g>
		<circle class="st0" cx="32.6" cy="17.4" r="17.4"/>
		<rect x="25.4" y="33.3" class="st0" width="14.5" height="4.9"/>
		<rect x="25.4" y="40.6" class="st1" width="14.5" height="3.5"/>
		<path class="st0" d="M32.6,50c2,0,3.6-1.6,3.6-3.6h-7.3C28.9,48.4,30.6,50,32.6,50z"/>
		<circle class="st2" cx="32.6" cy="17.4" r="6.6"/>
	</g>
	<g>
		<path class="st1" d="M33.2,12.7l-2.1-5l-3.4,0.8c-0.8-1.1-1.8-2.1-3-3l0.8-3.4l-5-2.1l-1.9,2.9c-1.4-0.2-2.8-0.2-4.2,0L12.7,0
			l-5,2.1l0.8,3.4c-1.1,0.8-2.1,1.8-3,3L2.1,7.7l-2.1,5l2.9,1.9c-0.2,1.4-0.2,2.8,0,4.2L0,20.6l2.1,5l3.4-0.8c0.8,1.1,1.8,2.1,3,3
			l-0.8,3.4l5,2.1l1.9-2.9c1.4,0.2,2.8,0.2,4.2,0l1.9,2.9l5-2.1l-0.8-3.4c1.1-0.8,2.1-1.8,3-3l3.4,0.8l2.1-5l-2.9-1.9
			c0.2-1.4,0.2-2.8,0-4.2L33.2,12.7z"/>
		<circle class="st0" cx="16.6" cy="16.6" r="7.1"/>
	</g>
</g>
</svg>
