<svg width="110" height="69" viewBox="0 0 110 69" fill="none" xmlns="http://www.w3.org/2000/svg">
<path d="M55.8688 32.8652H17.6428C7.88578 32.8652 0 40.7474 0 50.4998C0 60.2523 7.88578 68.1344 17.6428 68.1344H55.8688" fill="#A4DBE8"/>
<path d="M37.291 67.9998H85.675C99.0407 67.9998 110.001 57.1786 110.001 43.6854C110.001 30.1923 99.1744 19.3711 85.675 19.3711H45.9787" fill="#A4DBE8"/>
<path d="M51.3243 61.1866C68.2284 61.1866 81.9319 47.4895 81.9319 30.5933C81.9319 13.6971 68.2284 0 51.3243 0C34.4203 0 20.7168 13.6971 20.7168 30.5933C20.7168 47.4895 34.4203 61.1866 51.3243 61.1866Z" fill="#A4DBE8"/>
<path d="M33.9492 43.4178L54.2651 23.1113L74.4474 43.4178" fill="#00313C"/>
<path d="M63.7536 37.4062H44.6406V67.9996H63.7536V37.4062Z" fill="#00313C"/>
</svg>
