<svg width="72" height="72" viewBox="0 0 72 72" fill="none" xmlns="http://www.w3.org/2000/svg">
<path d="M71.5 42.2V29.3H63.7C63 26.2 61.7 23.2 60.1 20.6L65.6 15.1L56.5 6L51 11.5C48.3 9.8 45.4 8.6 42.3 7.9V0H29.3V7.8C26.2 8.5 23.2 9.8 20.6 11.4L15 5.9L5.9 15L11.4 20.5C9.7 23.2 8.5 26.1 7.8 29.2H0V42.1H7.8C8.5 45.2 9.8 48.2 11.4 50.8L5.9 56.3L15 65.4L20.5 59.9C23.2 61.6 26.1 62.8 29.2 63.5V71.3H42.1V63.5C45.2 62.8 48.2 61.5 50.8 59.9L56.3 65.4L65.4 56.3L60 50.9C61.7 48.2 62.9 45.3 63.6 42.2H71.5Z" fill="#A4DBE8"/>
<path d="M35.7008 49.6008C43.3775 49.6008 49.6008 43.3775 49.6008 35.7008C49.6008 28.024 43.3775 21.8008 35.7008 21.8008C28.024 21.8008 21.8008 28.024 21.8008 35.7008C21.8008 43.3775 28.024 49.6008 35.7008 49.6008Z" fill="#00313C"/>
</svg>
