<svg width="69" height="70" viewBox="0 0 69 70" fill="none" xmlns="http://www.w3.org/2000/svg">
<path d="M34.0141 0H0V70H52.0624V18.34L34.0141 0Z" fill="#A4DBE8"/>
<path d="M34.0137 18.34H52.062L34.0137 0V18.34Z" fill="#00313C"/>
<path d="M68.8616 39.3398H25.6846V45.0799H68.8616V39.3398Z" fill="#00313C"/>
<path d="M25.6851 53.6202C31.9725 53.6202 37.0694 48.4804 37.0694 42.1402C37.0694 35.7999 31.9725 30.6602 25.6851 30.6602C19.3977 30.6602 14.3008 35.7999 14.3008 42.1402C14.3008 48.4804 19.3977 53.6202 25.6851 53.6202Z" fill="#00313C"/>
<path d="M37.3459 53.8995C30.9596 60.3395 20.5471 60.3395 14.1608 53.8995C7.77451 47.4595 7.77451 36.9595 14.1608 30.5195C20.5471 24.0795 30.9596 24.0795 37.3459 30.5195C43.7323 36.9595 43.7323 47.3195 37.3459 53.8995ZM18.0482 34.4395C13.8832 38.6395 13.8832 45.4995 18.0482 49.8395C22.2131 54.1795 29.016 54.0395 33.3198 49.8395C37.6236 45.6395 37.4848 38.7795 33.3198 34.4395C29.1548 30.0995 22.352 30.2395 18.0482 34.4395Z" fill="white"/>
</svg>
