<svg width="58" height="79" viewBox="0 0 58 79" fill="none" xmlns="http://www.w3.org/2000/svg">
<rect x="10.0547" y="7.18164" width="35.9091" height="15.8" fill="#A4DBE8"/>
<path d="M37.0562 4.97656C37.7223 6.26661 38.1461 7.74095 38.1461 9.33814H43.8983V13.9454H50.8615V70.0317H7.02373V13.9454H13.9869V9.33814H19.7391C19.7391 7.74095 20.1024 6.26661 20.829 4.97656H0V79.0006H57.8247V4.97656H37.0562Z" fill="#00313C"/>
<path d="M13.9876 18.5526V13.9453H7.02441V70.0316H50.8622V13.9453H43.899V18.5526H13.9876Z" fill="white"/>
<path d="M38.1463 9.33747C38.1463 7.74027 37.783 6.26593 37.0564 4.97589C35.5427 2.02721 32.4546 0 28.9428 0C25.4309 0 22.3429 2.02721 20.7686 4.97589C20.1026 6.26593 19.6787 7.74027 19.6787 9.33747H38.1463Z" fill="#A4DBE8"/>
</svg>
